<svg width="38" height="38" viewBox="0 0 38 38" fill="none" xmlns="http://www.w3.org/2000/svg">
<rect width="38" height="38" rx="19" fill="#01B1FD"/>
<g clip-path="url(#clip0_254_148)">
<path d="M19 16.1667C18.2485 16.1667 17.5278 16.4653 16.9965 16.9966C16.4651 17.528 16.1666 18.2486 16.1666 19.0001C16.1666 19.7515 16.4651 20.4722 16.9965 21.0036C17.5278 21.5349 18.2485 21.8334 19 21.8334C19.7514 21.8334 20.4721 21.5349 21.0034 21.0036C21.5348 20.4722 21.8333 19.7515 21.8333 19.0001C21.8333 18.2486 21.5348 17.528 21.0034 16.9966C20.4721 16.4653 19.7514 16.1667 19 16.1667Z" fill="white"/>
<path fill-rule="evenodd" clip-rule="evenodd" d="M15.6 10.5C14.2474 10.5 12.9502 11.0373 11.9938 11.9938C11.0373 12.9502 10.5 14.2474 10.5 15.6V22.4C10.5 23.7526 11.0373 25.0498 11.9938 26.0062C12.9502 26.9627 14.2474 27.5 15.6 27.5H22.4C23.7526 27.5 25.0498 26.9627 26.0062 26.0062C26.9627 25.0498 27.5 23.7526 27.5 22.4V15.6C27.5 14.2474 26.9627 12.9502 26.0062 11.9938C25.0498 11.0373 23.7526 10.5 22.4 10.5H15.6ZM15.0333 19C15.0333 17.948 15.4512 16.939 16.1951 16.1951C16.939 15.4512 17.948 15.0333 19 15.0333C20.052 15.0333 21.061 15.4512 21.8049 16.1951C22.5488 16.939 22.9667 17.948 22.9667 19C22.9667 20.052 22.5488 21.061 21.8049 21.8049C21.061 22.5488 20.052 22.9667 19 22.9667C17.948 22.9667 16.939 22.5488 16.1951 21.8049C15.4512 21.061 15.0333 20.052 15.0333 19ZM22.9667 15.0333H24.1V13.9H22.9667V15.0333Z" fill="white"/>
</g>
<defs>
<clipPath id="clip0_254_148">
<rect width="17" height="17" fill="white" transform="translate(10.5 10.5)"/>
</clipPath>
</defs>
</svg>
