<svg width="38" height="38" viewBox="0 0 38 38" fill="none" xmlns="http://www.w3.org/2000/svg">
<g clip-path="url(#clip0_254_145)">
<path d="M38 19C38 24.0391 35.9982 28.8718 32.435 32.435C28.8718 35.9982 24.0391 38 19 38C13.9609 38 9.12816 35.9982 5.56497 32.435C2.00178 28.8718 0 24.0391 0 19C0 13.9609 2.00178 9.12816 5.56497 5.56497C9.12816 2.00178 13.9609 0 19 0C24.0391 0 28.8718 2.00178 32.435 5.56497C35.9982 9.12816 38 13.9609 38 19ZM19.6816 14.0268C17.8323 14.7963 14.1384 16.3875 8.59988 18.8005C7.70213 19.1567 7.23108 19.5067 7.18675 19.8503C7.1155 20.4274 7.83988 20.6554 8.8255 20.9665L9.24113 21.0971C10.2101 21.413 11.5164 21.7811 12.1932 21.7954C12.8108 21.8112 13.4979 21.5579 14.2547 21.0354C19.4307 17.5425 22.1018 15.7771 22.268 15.7391C22.3868 15.7106 22.553 15.6774 22.6623 15.7771C22.7715 15.8769 22.762 16.0621 22.7501 16.112C22.6789 16.4184 19.836 19.0594 18.3659 20.4274C17.9075 20.8549 17.5821 21.1565 17.5156 21.2254C17.3692 21.3751 17.2204 21.5223 17.0691 21.6671C16.1666 22.5364 15.4921 23.1871 17.1047 24.2511C17.8814 24.7641 18.5036 25.1845 19.1235 25.6072C19.798 26.068 20.4725 26.5264 21.3465 27.1011C21.5682 27.2468 21.7819 27.3948 21.9878 27.5452C22.7739 28.1057 23.484 28.6093 24.3556 28.5285C24.8639 28.481 25.3888 28.006 25.6548 26.581C26.2841 23.2156 27.5215 15.9268 27.8065 12.9224C27.8244 12.6726 27.8141 12.4217 27.7756 12.1742C27.7526 11.9748 27.6561 11.791 27.5049 11.6589C27.2885 11.5103 27.0311 11.4331 26.7686 11.438C26.0561 11.4499 24.9565 11.8323 19.6816 14.0268Z" fill="#01B1FD"/>
<path fill-rule="evenodd" clip-rule="evenodd" d="M27.8248 10.13C28.083 10.0149 28.3656 9.97519 28.6432 10.015C28.9208 10.0549 29.1832 10.1728 29.4032 10.3565C29.6232 10.5402 29.7926 10.783 29.8939 11.0596C29.9952 11.3362 30.0247 11.6365 29.9792 11.9293L27.6095 27.1526C27.3797 28.621 25.8584 29.4631 24.5868 28.7316C23.5232 28.1197 21.9434 27.1769 20.5224 26.1931C19.8119 25.7007 17.6355 24.1238 17.903 23.0018C18.1328 22.0424 21.7898 18.4371 23.8794 16.2937C24.6996 15.4515 24.3256 14.9658 23.357 15.7404C20.9518 17.6636 17.0901 20.5883 15.8133 21.4116C14.6869 22.1375 14.0997 22.2615 13.3976 22.1375C12.1166 21.9118 10.9287 21.5621 9.95905 21.1361C8.64882 20.5606 8.71255 18.6529 9.958 18.0974L27.8248 10.13Z" fill="white"/>
</g>
<defs>
<clipPath id="clip0_254_145">
<rect width="38" height="38" fill="white"/>
</clipPath>
</defs>
</svg>
