<svg width="40" height="40" viewBox="0 0 40 40" fill="none" xmlns="http://www.w3.org/2000/svg">
<rect width="40" height="40" rx="20" fill="#01B1FD"/>
<path d="M31 15.1111V19.5556C31 19.7913 30.9109 20.0174 30.7522 20.1841C30.5935 20.3508 30.3783 20.4444 30.1538 20.4444C28.3862 20.4488 26.6441 20.0023 25.0769 19.1433V23.5556C25.0769 25.7952 24.23 27.943 22.7225 29.5267C21.215 31.1103 19.1704 32 17.0385 32C14.9065 32 12.8619 31.1103 11.3544 29.5267C9.84691 27.943 9 25.7952 9 23.5556C9 19.4556 11.8463 15.8311 15.6212 15.1244C15.7429 15.1017 15.868 15.1073 15.9875 15.1408C16.107 15.1743 16.218 15.2349 16.3128 15.3184C16.4076 15.4019 16.4838 15.5062 16.5361 15.6239C16.5884 15.7417 16.6154 15.8701 16.6154 16V20.7433C16.6154 20.9116 16.57 21.0764 16.4845 21.2186C16.3989 21.3608 16.2767 21.4745 16.132 21.5467C15.79 21.7171 15.4978 21.9807 15.2858 22.3102C15.0739 22.6397 14.9499 23.0228 14.927 23.4198C14.904 23.8167 14.9829 24.2128 15.1553 24.5668C15.3277 24.9208 15.5874 25.2197 15.9073 25.4323C16.2271 25.645 16.5954 25.7636 16.9738 25.7757C17.3522 25.7879 17.7267 25.6932 18.0583 25.5014C18.3899 25.3097 18.6665 25.0281 18.8592 24.6858C19.0519 24.3435 19.1537 23.9532 19.1538 23.5556V8.88889C19.1538 8.65314 19.243 8.42705 19.4017 8.26035C19.5604 8.09365 19.7756 8 20 8H24.2308C24.4552 8 24.6704 8.09365 24.8291 8.26035C24.9878 8.42705 25.0769 8.65314 25.0769 8.88889C25.0783 10.3029 25.6137 11.6586 26.5655 12.6585C27.5173 13.6584 28.8078 14.2208 30.1538 14.2222C30.3783 14.2222 30.5935 14.3159 30.7522 14.4826C30.9109 14.6493 31 14.8754 31 15.1111Z" fill="white"/>
</svg>
