<svg width="201" height="59" viewBox="0 0 201 59" fill="none" xmlns="http://www.w3.org/2000/svg">
<g clip-path="url(#clip0_67_808)">
<path d="M33.1195 32.7155C32.5465 33.0657 31.8779 33.1294 31.3686 32.8429C30.7318 32.4608 30.3498 31.6013 30.3498 30.4233V26.8259C30.3498 25.1067 29.6812 23.8651 28.5352 23.5468C26.5932 22.9737 25.1287 25.3614 24.5875 26.2528L21.1492 31.7605V24.9794C21.1174 23.4194 20.608 22.4962 19.6529 22.2097C19.0162 22.0187 18.0611 22.1142 17.1379 23.5149L9.46543 35.8036C8.44668 33.8616 7.90547 31.6968 7.90547 29.5001C7.90547 22.0823 13.8588 16.0653 21.1492 16.0653C28.4396 16.0653 34.393 22.0823 34.393 29.5001V29.5319V29.5638C34.4566 30.9964 34.0109 32.1425 33.1195 32.7155ZM37.3219 29.5001V29.4683V29.4364C37.29 20.4269 30.0314 13.0728 21.1492 13.0728C12.2352 13.0728 4.97656 20.4269 4.97656 29.5001C4.97656 38.5415 12.2352 45.9274 21.1492 45.9274C25.2561 45.9274 29.14 44.3675 32.1326 41.5341C32.7375 40.961 32.7693 40.0378 32.1963 39.4329C31.6551 38.828 30.7318 38.7962 30.127 39.3374C30.127 39.3374 30.127 39.3374 30.0951 39.3692C27.6756 41.6614 24.4283 42.9667 21.0855 42.9667C17.1697 42.9667 13.6678 41.2476 11.2482 38.5097L18.1566 27.4308V32.5564C18.1566 35.0077 19.1117 35.8036 19.9076 36.0265C20.7035 36.2493 21.9133 36.0901 23.2186 34.0208L27.007 27.8765C27.1344 27.6854 27.2299 27.4944 27.3572 27.3671V30.487C27.3572 32.7792 28.2805 34.6257 29.8723 35.5171C31.3049 36.3448 33.1195 36.2493 34.6158 35.3261C36.4623 34.1163 37.4492 32.0151 37.3219 29.5001ZM59.8617 23.897C60.2438 24.1198 60.5939 24.661 60.5939 25.1386C60.5939 25.9026 59.9572 26.5394 59.225 26.5394C59.034 26.5394 58.8748 26.4757 58.7156 26.4438C57.8561 25.8071 56.7736 25.3933 55.6275 25.3933C52.9215 25.3933 51.075 27.5899 51.075 30.3278C51.075 33.0657 52.9533 35.2306 55.6275 35.2306C56.9646 35.2306 58.1744 34.6894 59.0658 33.8298C59.2887 33.6706 59.5752 33.5751 59.8617 33.5751C60.5939 33.5751 61.167 34.1481 61.167 34.8804C61.167 35.3579 60.8805 35.7718 60.5303 35.9946C59.225 37.1089 57.474 37.8411 55.6594 37.8411C51.5207 37.8411 48.1461 34.4347 48.1461 30.2323C48.1461 26.03 51.5207 22.6235 55.6594 22.6235C57.1875 22.5917 58.652 23.0692 59.8617 23.897ZM67.4387 27.0806C70.2721 27.0806 72.6279 29.4683 72.6279 32.429C72.6279 35.3579 70.2402 37.8729 67.4387 37.8729C64.4779 37.8729 62.0266 35.3898 62.0266 32.429C62.0266 29.4683 64.4779 27.0806 67.4387 27.0806ZM67.4068 35.2306C68.6484 35.2306 69.699 34.0526 69.699 32.4608C69.699 30.869 68.6484 29.8503 67.4068 29.8503C66.0697 29.8503 64.9555 30.8372 64.9555 32.4608C64.9555 34.0208 66.0697 35.2306 67.4068 35.2306ZM74.4107 36.2175V28.7042C74.4107 27.8765 75.0475 27.2079 75.8752 27.2079C76.6711 27.2079 77.3397 27.8765 77.3397 28.7042V36.2175C77.3397 37.0452 76.6711 37.7138 75.8752 37.7138C75.0793 37.7138 74.4107 37.0134 74.4107 36.2175ZM74.1879 24.3745C74.1879 23.3876 74.952 22.6235 75.8752 22.6235C76.8303 22.6235 77.5943 23.4194 77.5943 24.3745C77.5943 25.3296 76.8303 26.0937 75.8752 26.0937C74.9201 26.0618 74.1879 25.2978 74.1879 24.3745ZM82.9428 32.1425V36.2175C82.9428 37.0452 82.2742 37.7138 81.4783 37.7138C80.6824 37.7138 80.0139 37.0452 80.0139 36.2175V28.354C80.0139 27.7173 80.5232 27.2079 81.16 27.2079C81.7967 27.2079 82.2742 27.7491 82.2742 28.354C83.4521 27.2397 84.5027 27.0806 85.4897 27.0806C88.4186 27.0806 89.7238 29.2773 89.7238 31.7923V36.2175C89.7238 37.0452 89.0553 37.7138 88.2594 37.7138C87.4635 37.7138 86.7949 37.0452 86.7949 36.2175V32.1425C86.7949 30.869 86.6357 29.7866 84.7893 29.7866C83.484 29.7866 82.9428 30.869 82.9428 32.1425ZM99.2109 33.7024C98.8607 33.7024 98.6379 33.5433 98.4469 33.3204L95.0404 29.6274V36.2175C95.0404 37.0452 94.3719 37.7138 93.576 37.7138C92.7801 37.7138 92.1115 37.0452 92.1115 36.2175V23.1648C92.207 22.9419 92.4299 22.7827 92.6527 22.7827C92.9074 22.7827 93.1303 23.0056 93.2895 23.1648L98.7334 29.2772C98.8926 29.4683 99.0836 29.5638 99.2109 29.5638C99.3064 29.5638 99.5293 29.4683 99.6885 29.2772L105.132 23.1648C105.292 23.0056 105.483 22.7827 105.769 22.7827C106.024 22.7827 106.247 22.9419 106.31 23.1648V36.2175C106.31 37.0452 105.674 37.7138 104.846 37.7138C104.05 37.7138 103.381 37.0452 103.381 36.2175V29.6274L99.975 33.3204C99.7203 33.5433 99.4975 33.7024 99.2109 33.7024ZM113.282 35.2306C114.588 35.2306 115.702 34.0526 115.702 32.4608C115.702 30.869 114.556 29.8185 113.282 29.8185C112.009 29.8185 110.958 30.9009 110.958 32.4608C110.958 33.989 111.977 35.2306 113.282 35.2306ZM116.402 36.5677L116.339 36.2175C115.766 37.3317 113.951 37.8411 112.805 37.8411C110.067 37.8411 108.029 35.3579 108.029 32.3972C108.029 29.4683 110.099 27.0487 112.964 27.0487C113.442 27.0487 115.097 27.1761 116.371 28.6724L116.434 28.3222C116.434 27.6854 116.912 27.1761 117.548 27.1761C118.185 27.1761 118.695 27.7173 118.695 28.3222V36.5358C118.695 37.1726 118.185 37.6819 117.548 37.6819C116.88 37.7138 116.402 37.1726 116.402 36.5677ZM126.749 29.7866H126.431C124.584 29.8821 124.234 30.9327 124.234 32.1425V36.2175C124.234 37.0452 123.565 37.7138 122.77 37.7138C121.974 37.7138 121.305 37.0452 121.305 36.2175V28.354C121.305 27.7173 121.814 27.2079 122.451 27.2079C123.088 27.2079 123.565 27.7491 123.565 28.354C124.648 27.3353 125.539 27.1124 126.431 27.0806H126.717C127.418 27.0806 128.054 27.6855 128.054 28.4495C128.086 29.1499 127.449 29.7866 126.749 29.7866ZM138.051 35.5171C138.178 35.7399 138.274 35.9628 138.274 36.2175C138.274 36.9815 137.573 37.6819 136.809 37.6819C136.3 37.6819 135.854 37.2999 135.504 36.8542L132.129 32.9384V36.1856C132.129 37.0134 131.461 37.6819 130.665 37.6819C129.869 37.6819 129.2 37.0134 129.2 36.1856V24.2472C129.2 23.4194 129.837 22.7509 130.665 22.7509C131.493 22.7509 132.129 23.4194 132.129 24.2472V31.6968L135.504 27.972C135.854 27.5899 136.268 27.1761 136.777 27.1761C137.51 27.1761 138.178 27.8446 138.178 28.6087C138.178 28.8315 138.114 29.0862 137.987 29.2772L135.313 32.2062L138.051 35.5171ZM143.781 29.8185C142.985 29.8185 141.68 30.2323 141.68 31.4739H145.914C145.882 30.2323 144.545 29.8185 143.781 29.8185ZM147.602 33.3522H141.68C141.68 35.1032 143.367 35.3897 144.1 35.3897C144.641 35.3897 145.405 35.2942 146.01 35.0077C146.201 34.8804 146.487 34.7849 146.774 34.7849C147.411 34.7849 147.952 35.3261 147.952 35.9946C147.952 36.4403 147.665 36.8224 147.315 37.0452C146.424 37.7138 145.246 37.8729 144.131 37.8729C141.171 37.8729 138.719 36.2812 138.719 32.5564C138.719 29.6274 140.216 27.0806 143.718 27.0806C146.551 27.0806 148.684 28.9271 148.748 32.2062C148.748 32.811 148.238 33.3522 147.602 33.3522ZM155.752 37.8411H154.956C152.727 37.8411 151.422 36.8542 151.422 33.3841V29.7866H150.658C149.957 29.7866 149.353 29.1499 149.353 28.4495C149.353 27.6855 149.989 27.0806 150.658 27.0806H151.422V24.3108C151.422 23.4831 152.059 22.8146 152.886 22.8146C153.682 22.8146 154.351 23.4831 154.351 24.3108V27.0806H155.561C156.261 27.0806 156.866 27.6855 156.866 28.4495C156.866 29.1499 156.229 29.7866 155.561 29.7866H154.351V32.811C154.351 34.8167 154.446 35.2306 155.338 35.2306H155.752C156.452 35.2306 157.057 35.8036 157.057 36.5358C157.057 37.2362 156.452 37.8411 155.752 37.8411ZM169.919 23.897C170.301 24.1198 170.651 24.661 170.651 25.1386C170.651 25.9026 170.014 26.5394 169.282 26.5394C169.091 26.5394 168.932 26.4757 168.772 26.4438C167.913 25.8071 166.83 25.3933 165.684 25.3933C162.978 25.3933 161.132 27.5899 161.132 30.3278C161.132 33.0657 163.01 35.2306 165.684 35.2306C167.021 35.2306 168.231 34.6894 169.123 33.8298C169.346 33.6706 169.632 33.5751 169.919 33.5751C170.651 33.5751 171.224 34.1481 171.224 34.8804C171.224 35.3579 170.937 35.7718 170.587 35.9946C169.282 37.1089 167.531 37.8411 165.716 37.8411C161.578 37.8411 158.203 34.4347 158.203 30.2323C158.203 26.03 161.578 22.6235 165.716 22.6235C167.244 22.5917 168.741 23.0692 169.919 23.897ZM177.336 35.2306C178.642 35.2306 179.756 34.0526 179.756 32.4608C179.756 30.869 178.61 29.8185 177.336 29.8185C176.031 29.8185 175.012 30.9009 175.012 32.4608C175.012 33.989 176.063 35.2306 177.336 35.2306ZM180.456 36.5677L180.393 36.2175C179.82 37.3317 178.005 37.8411 176.859 37.8411C174.121 37.8411 172.083 35.3579 172.083 32.3972C172.083 29.4683 174.153 27.0487 177.018 27.0487C177.495 27.0487 179.151 27.1761 180.424 28.6724L180.488 28.3222C180.488 27.6854 180.966 27.1761 181.602 27.1761C182.239 27.1761 182.748 27.7173 182.748 28.3222V36.5358C182.748 37.1726 182.239 37.6819 181.602 37.6819C180.934 37.7138 180.456 37.1726 180.456 36.5677ZM190.739 35.2306C192.045 35.2306 193.063 33.989 193.063 32.4608C193.063 30.869 192.013 29.8185 190.739 29.8185C189.434 29.8185 188.32 30.869 188.32 32.4608C188.32 34.0526 189.434 35.2306 190.739 35.2306ZM188.32 36.9815V40.7064C188.32 41.5341 187.651 42.2026 186.855 42.2026C186.059 42.2026 185.391 41.5341 185.391 40.7064V28.354C185.391 27.7173 185.9 27.2079 186.537 27.2079C187.174 27.2079 187.651 27.7491 187.651 28.4813C188.734 27.3671 190.071 27.0806 191.089 27.0806C193.923 27.0806 196.024 29.4683 196.024 32.429C196.024 35.3579 194.018 37.8729 191.249 37.8729C190.389 37.8411 189.116 37.5864 188.32 36.9815Z" fill="white" fill-opacity="0.5"/>
</g>
<defs>
<clipPath id="clip0_67_808">
<rect width="200" height="58.5938" fill="white" transform="translate(0.5 0.203125)"/>
</clipPath>
</defs>
</svg>
