<svg width="201" height="61" viewBox="0 0 201 61" fill="none" xmlns="http://www.w3.org/2000/svg">
<path d="M82.1873 27.1478C81.6761 25.1529 80.3863 23.6927 77.8565 23.6927C74.1314 23.6927 72.5742 26.9774 72.5742 30.3094C72.5742 33.6413 74.1314 36.9287 77.8565 36.9287C80.5567 36.9287 82.051 34.9102 82.2843 32.3804H85.2545C85.0107 36.5408 82.0667 39.4113 77.8565 39.4113C72.6476 39.4113 69.5332 35.2746 69.5332 30.3094C69.5332 25.3442 72.6476 21.2101 77.8565 21.2101C81.7731 21.2337 84.8639 23.3991 85.2283 27.1478H82.1873ZM87.0555 32.695C87.0555 28.8518 89.3676 26.0756 93.4074 26.0756C97.4472 26.0756 99.7567 28.8518 99.7567 32.695C99.7567 36.5381 97.4446 39.3379 93.4074 39.3379C89.3703 39.3379 87.0555 36.5643 87.0555 32.695ZM96.9832 32.695C96.9832 30.5296 95.8874 28.2672 93.4074 28.2672C90.9275 28.2672 89.829 30.5296 89.829 32.695C89.829 34.8604 90.9248 37.1516 93.4074 37.1516C95.89 37.1516 96.9832 34.8866 96.9832 32.695ZM102.142 21.6243H104.916V24.2458H102.142V21.6243ZM102.142 26.4164H104.916V38.9997H102.142V26.4164ZM107.936 26.4164H110.557V28.2672L110.607 28.3144C111.006 27.6298 111.577 27.0624 112.265 26.6693C112.953 26.2762 113.732 26.0715 114.524 26.0756C117.25 26.0756 118.98 27.5358 118.98 30.3592V39.0102H116.209V31.0906C116.16 29.1192 115.381 28.2672 113.75 28.2672C111.902 28.2672 110.709 29.7274 110.709 31.5756V38.9971H107.936V26.4164ZM137.454 38.9971H135.506L135.045 36.955C133.414 38.8031 131.928 39.4113 129.802 39.4113C124.593 39.4113 121.479 35.2746 121.479 30.3094C121.479 25.3442 124.593 21.2101 129.802 21.2101C133.598 21.2101 136.786 23.2287 137.247 27.1478H134.29C133.996 24.8592 132.001 23.6927 129.813 23.6927C126.09 23.6927 124.53 26.9774 124.53 30.3094C124.53 33.6413 126.09 36.9287 129.813 36.9287C132.927 36.9785 134.631 35.0937 134.678 32.1602H130.056V29.848H137.454V38.9971ZM142.54 33.4264C142.54 35.3978 143.61 37.1489 145.922 37.1489C147.529 37.1489 148.501 36.4438 148.989 35.0517H151.61C151.002 37.8017 148.667 39.3327 145.917 39.3327C141.984 39.3327 139.761 36.5827 139.761 32.7133C139.761 29.1376 142.097 26.0704 145.843 26.0704C149.81 26.0704 152.245 29.6488 151.781 33.4107L142.54 33.4264ZM149.013 31.5913C148.916 29.8401 147.723 28.2594 145.848 28.2594C143.927 28.2594 142.613 29.7196 142.54 31.5913H149.013ZM162.398 30.6266C162.178 29.093 161.058 28.2672 159.514 28.2672C158.08 28.2672 156.059 29.0222 156.059 32.8418C156.059 34.939 156.985 37.1489 159.394 37.1489C161.001 37.1489 162.12 36.0794 162.388 34.2784H165.161C164.637 37.5369 162.631 39.3379 159.394 39.3379C155.462 39.3379 153.286 36.5408 153.286 32.8418C153.286 29.0458 155.354 26.0756 159.491 26.0756C162.411 26.0756 164.894 27.5358 165.161 30.6266H162.398ZM167.507 21.6243H170.284V31.5022L175.309 26.4164H178.717L173.899 31.0408L179.181 38.9971H175.781L171.938 32.889L170.284 34.496V38.9971H167.507V21.6243ZM179.92 32.695C179.92 28.8518 182.233 26.0756 186.27 26.0756C190.307 26.0756 192.611 28.8518 192.611 32.695C192.611 36.5381 190.299 39.3379 186.259 39.3379C182.219 39.3379 179.92 36.5643 179.92 32.695ZM189.848 32.695C189.848 30.5296 188.752 28.2672 186.27 28.2672C183.787 28.2672 182.694 30.5296 182.694 32.695C182.694 34.8604 183.79 37.1516 186.27 37.1516C188.75 37.1516 189.848 34.8866 189.848 32.695Z" fill="white" fill-opacity="0.5"/>
<path d="M56.1375 30.3888C56.1592 35.3096 54.7213 40.1264 52.0056 44.23C49.2899 48.3336 45.4183 51.5397 40.8805 53.443C36.3426 55.3464 31.3423 55.8614 26.5118 54.9229C21.6813 53.9844 17.2375 51.6347 13.7424 48.1707C10.2473 44.7068 7.85781 40.2842 6.87612 35.4623C5.89444 30.6404 6.36463 25.6356 8.22723 21.0809C10.0898 16.5262 13.2612 12.6261 17.3403 9.87373C21.4194 7.12137 26.2231 5.64039 31.1439 5.61804C37.743 5.58878 44.0834 8.18204 48.7706 12.8274C53.4577 17.4728 56.1077 23.7897 56.1375 30.3888Z" fill="white" fill-opacity="0.5"/>
<path d="M54.2629 30.3938C54.2836 34.944 52.9545 39.3981 50.4438 43.193C47.9331 46.9878 44.3534 49.9529 40.1575 51.7134C35.9616 53.4738 31.3379 53.9505 26.8711 53.0831C22.4043 52.2157 18.295 50.0433 15.0629 46.8405C11.8308 43.6377 9.62095 39.5484 8.7129 35.0896C7.80485 30.6309 8.23935 26.0031 9.96144 21.7913C11.6835 17.5795 14.6159 13.973 18.3877 11.4278C22.1595 8.88257 26.6013 7.51297 31.1515 7.49218C34.1728 7.47838 37.1672 8.0598 39.9638 9.20326C42.7603 10.3467 45.3043 12.0298 47.4504 14.1564C49.5965 16.283 51.3027 18.8115 52.4715 21.5976C53.6404 24.3836 54.2491 27.3726 54.2629 30.3938Z" fill="white" fill-opacity="0.31"/>
<path d="M31.6758 8.9839C33.1384 8.72281 34.6357 8.72281 36.0983 8.9839C37.5749 9.21789 39.0022 9.69631 40.3216 10.3995C41.6323 11.1204 42.7675 12.0983 43.8947 13.021C45.022 13.9438 46.1466 14.8771 47.2162 15.9047C48.3068 16.9151 49.2588 18.0655 50.0474 19.3258C50.8605 20.5776 51.5264 21.9191 52.0319 23.3236C53.0154 26.129 53.2954 29.1329 52.8472 32.0717H52.7004C52.2686 29.2641 51.5465 26.5089 50.5455 23.8506C50.0658 22.5359 49.501 21.2539 48.8546 20.0127C48.1753 18.775 47.4279 17.576 46.6158 16.4212C45.7874 15.2523 44.7725 14.2276 43.6116 13.3881C42.445 12.557 41.1028 12.017 39.8025 11.5058C38.5022 10.9946 37.202 10.486 35.8519 10.0954C34.5018 9.70482 33.1202 9.41383 31.681 9.13071L31.6758 8.9839Z" fill="white" fill-opacity="0.4"/>
<path d="M42.9222 22.2671C41.2523 21.7821 39.5142 21.0979 37.7683 20.4058C37.6687 19.9654 37.2781 19.4175 36.4916 18.749C35.346 17.7554 33.1964 17.7816 31.3377 18.2247C29.2877 17.7423 27.2612 17.5719 25.3082 18.0385C9.40865 22.4165 18.4267 33.1202 12.5859 43.8684C13.417 45.6301 22.3747 55.9274 35.3355 53.1565C35.3355 53.1565 30.9051 42.5052 40.9063 37.3932C49.0199 33.2329 54.8842 25.5309 42.9222 22.2671Z" fill="white" fill-opacity="0.5"/>
<path d="M44.8857 29.2692C44.8873 29.4603 44.8321 29.6474 44.7271 29.8071C44.6222 29.9667 44.4722 30.0916 44.2963 30.1659C44.1203 30.2402 43.9262 30.2605 43.7386 30.2244C43.551 30.1883 43.3784 30.0973 43.2426 29.963C43.1068 29.8286 43.0139 29.657 42.9757 29.4698C42.9376 29.2827 42.9558 29.0884 43.0282 28.9116C43.1006 28.7348 43.2238 28.5835 43.3823 28.4768C43.5408 28.3701 43.7273 28.3129 43.9184 28.3124C44.0447 28.3117 44.17 28.3359 44.2869 28.3836C44.4039 28.4313 44.5104 28.5016 44.6002 28.5905C44.69 28.6793 44.7615 28.785 44.8105 28.9015C44.8595 29.0179 44.885 29.1429 44.8857 29.2692Z" fill="white"/>
<path d="M31.3379 18.2195C32.4966 18.3034 36.6884 19.6719 37.7685 20.4059C36.8745 17.7844 33.8362 17.4436 31.3379 18.2195Z" fill="white"/>
<path d="M32.4413 24.831C32.4413 25.7124 32.1799 26.574 31.6902 27.3069C31.2005 28.0398 30.5045 28.611 29.6901 28.9483C28.8758 29.2856 27.9797 29.3739 27.1152 29.2019C26.2507 29.03 25.4566 28.6055 24.8334 27.9823C24.2101 27.359 23.7857 26.5649 23.6137 25.7004C23.4418 24.8359 23.53 23.9399 23.8673 23.1255C24.2046 22.3112 24.7758 21.6152 25.5087 21.1255C26.2416 20.6358 27.1032 20.3744 27.9847 20.3744C29.1666 20.3744 30.3002 20.8439 31.136 21.6797C31.9717 22.5155 32.4413 23.649 32.4413 24.831Z" fill="white"/>
<path d="M31.1226 24.8703C31.1231 25.4895 30.94 26.0949 30.5964 26.61C30.2528 27.1251 29.7641 27.5267 29.1922 27.764C28.6203 28.0013 27.9908 28.0637 27.3835 27.9432C26.7761 27.8227 26.2182 27.5248 25.7801 27.0871C25.3421 26.6495 25.0438 26.0918 24.9228 25.4845C24.8018 24.8773 24.8636 24.2478 25.1004 23.6757C25.3373 23.1036 25.7385 22.6146 26.2533 22.2705C26.7681 21.9264 27.3733 21.7428 27.9925 21.7428C28.822 21.7435 29.6174 22.0731 30.2042 22.6594C30.7909 23.2457 31.1212 24.0408 31.1226 24.8703Z" fill="#58595B"/>
<path d="M48.4907 31.2299C44.8861 33.7702 40.7861 35.6865 34.9715 35.6865C32.2504 35.6865 31.6999 32.8029 29.9015 34.2132C28.9708 34.9446 25.707 36.5726 23.0986 36.4573C20.4902 36.3419 16.2827 34.8083 15.1161 29.2638C14.6521 34.8083 14.4135 38.8927 12.332 43.5747C16.4793 50.215 26.365 55.3348 35.3359 53.1328C34.3738 46.4007 40.2565 39.8049 43.5727 36.431C44.8258 35.1544 47.2429 33.0676 48.4907 31.2195V31.2299Z" fill="white" fill-opacity="0.35"/>
<path d="M48.3483 31.3979C47.1999 32.3856 45.9186 33.2071 44.5418 33.8386C43.1695 34.4907 41.7388 35.012 40.2687 35.3958C38.8007 35.7759 37.2645 36.0616 35.7099 35.9201C34.1553 35.7785 32.5641 35.249 31.5391 34.085L31.5889 34.0273C32.8577 34.8479 34.3074 35.1362 35.7545 35.1782C37.2237 35.2208 38.6931 35.0986 40.135 34.8138C41.5918 34.5102 43.0171 34.0713 44.3924 33.503C45.7899 32.9694 47.1056 32.2422 48.3011 31.3429L48.3483 31.3979Z" fill="#58595B"/>
</svg>
