<svg width="39" height="39" viewBox="0 0 39 39" fill="none" xmlns="http://www.w3.org/2000/svg">
<g clip-path="url(#clip0_1_527)">
<path d="M39.0049 19.8701C39.0049 9.37677 30.4982 0.870117 20.0049 0.870117C9.51154 0.870117 1.00488 9.37677 1.00488 19.8701C1.00488 29.3535 7.95295 37.214 17.0361 38.6393V25.3623H12.2119V19.8701H17.0361V15.6842C17.0361 10.9223 19.8728 8.29199 24.2128 8.29199C26.2915 8.29199 28.4658 8.66309 28.4658 8.66309V13.3389H26.07C23.7097 13.3389 22.9736 14.8035 22.9736 16.3061V19.8701H28.2432L27.4008 25.3623H22.9736V38.6393C32.0568 37.214 39.0049 29.3536 39.0049 19.8701Z" fill="#BA45E3"/>
<path d="M27.4008 25.3623L28.2432 19.8701H22.9736V16.3061C22.9736 14.8034 23.7097 13.3389 26.07 13.3389H28.4658V8.66309C28.4658 8.66309 26.2915 8.29199 24.2126 8.29199C19.8728 8.29199 17.0361 10.9223 17.0361 15.6842V19.8701H12.2119V25.3623H17.0361V38.6393C18.0182 38.7932 19.0108 38.8704 20.0049 38.8701C20.999 38.8704 21.9915 38.7932 22.9736 38.6393V25.3623H27.4008Z" fill="white"/>
</g>
<defs>
<clipPath id="clip0_1_527">
<rect width="38" height="38" fill="white" transform="translate(0.504883 0.870117)"/>
</clipPath>
</defs>
</svg>
