<svg width="97" height="19" viewBox="0 0 97 19" fill="none" xmlns="http://www.w3.org/2000/svg">
<path d="M10.4375 5.7508C10.3466 4.94398 9.97159 4.31898 9.3125 3.8758C8.65341 3.42694 7.82386 3.2025 6.82386 3.2025C6.10795 3.2025 5.48864 3.31614 4.96591 3.54341C4.44318 3.765 4.03693 4.07182 3.74716 4.46387C3.46307 4.85023 3.32102 5.29057 3.32102 5.78489C3.32102 6.19966 3.41761 6.55762 3.6108 6.85875C3.80966 7.15989 4.06818 7.41273 4.38636 7.61728C4.71023 7.81614 5.05682 7.98375 5.42614 8.12012C5.79545 8.2508 6.15057 8.35875 6.49148 8.44398L8.19602 8.88716C8.75284 9.02353 9.32386 9.20818 9.90909 9.44114C10.4943 9.67409 11.0369 9.98091 11.5369 10.3616C12.0369 10.7423 12.4403 11.2139 12.7472 11.7764C13.0597 12.3389 13.2159 13.0122 13.2159 13.7963C13.2159 14.7849 12.9602 15.6627 12.4489 16.4298C11.9432 17.1968 11.2074 17.8019 10.2415 18.2451C9.28125 18.6883 8.11932 18.9099 6.75568 18.9099C5.44886 18.9099 4.31818 18.7025 3.36364 18.2877C2.40909 17.873 1.66193 17.2849 1.12216 16.5235C0.582386 15.7565 0.284091 14.8474 0.227273 13.7963H2.86932C2.92045 14.4269 3.125 14.9525 3.48295 15.373C3.84659 15.7877 4.30966 16.0974 4.87216 16.3019C5.44034 16.5008 6.0625 16.6002 6.73864 16.6002C7.48295 16.6002 8.14489 16.4838 8.72443 16.2508C9.30966 16.0122 9.76989 15.6826 10.1051 15.2622C10.4403 14.836 10.608 14.3389 10.608 13.7707C10.608 13.2536 10.4602 12.8303 10.1648 12.5008C9.875 12.1713 9.48011 11.8985 8.98011 11.6826C8.4858 11.4667 7.92614 11.2764 7.30114 11.1116L5.23864 10.5491C3.84091 10.1684 2.73295 9.60875 1.91477 8.87012C1.10227 8.13148 0.696023 7.15421 0.696023 5.9383C0.696023 4.93262 0.96875 4.05478 1.5142 3.30478C2.05966 2.55478 2.7983 1.97239 3.73011 1.55762C4.66193 1.13716 5.71307 0.926935 6.88352 0.926935C8.06534 0.926935 9.10795 1.13432 10.0114 1.54909C10.9205 1.96387 11.6364 2.53489 12.1591 3.26216C12.6818 3.98375 12.9545 4.8133 12.9773 5.7508H10.4375ZM19.968 18.9099C19.1385 18.9099 18.3885 18.7565 17.718 18.4497C17.0476 18.1372 16.5163 17.6855 16.1243 17.0945C15.7379 16.5036 15.5447 15.7792 15.5447 14.9213C15.5447 14.1826 15.6868 13.5747 15.9709 13.0974C16.255 12.6201 16.6385 12.2423 17.1214 11.9639C17.6044 11.6855 18.1442 11.4752 18.7408 11.3332C19.3374 11.1911 19.9453 11.0832 20.5646 11.0093C21.3487 10.9184 21.9851 10.8445 22.4737 10.7877C22.9624 10.7252 23.3175 10.6258 23.5391 10.4894C23.7607 10.3531 23.8714 10.1315 23.8714 9.82466V9.765C23.8714 9.02068 23.6612 8.44398 23.2408 8.03489C22.826 7.6258 22.2067 7.42125 21.3828 7.42125C20.5249 7.42125 19.8487 7.61159 19.3544 7.99228C18.8658 8.36728 18.5277 8.78489 18.3402 9.24512L15.9453 8.69966C16.2294 7.90421 16.6442 7.26216 17.1896 6.77353C17.7408 6.27921 18.3743 5.92125 19.0902 5.69966C19.8061 5.47239 20.5589 5.35875 21.3487 5.35875C21.8714 5.35875 22.4254 5.42125 23.0107 5.54625C23.6016 5.66557 24.1527 5.88716 24.6641 6.21103C25.1811 6.53489 25.6044 6.99796 25.9339 7.60023C26.2635 8.19682 26.4283 8.97239 26.4283 9.92694V18.6201H23.9396V16.8303H23.8374C23.6726 17.1599 23.4254 17.4838 23.0959 17.8019C22.7663 18.1201 22.343 18.3843 21.826 18.5945C21.3089 18.8048 20.6896 18.9099 19.968 18.9099ZM20.522 16.8644C21.2266 16.8644 21.8288 16.7252 22.3288 16.4468C22.8345 16.1684 23.218 15.8048 23.4794 15.3559C23.7464 14.9014 23.88 14.4156 23.88 13.8985V12.211C23.7891 12.3019 23.6129 12.3872 23.3516 12.4667C23.0959 12.5406 22.8033 12.6059 22.4737 12.6627C22.1442 12.7139 21.8232 12.7622 21.5107 12.8076C21.1982 12.8474 20.9368 12.8815 20.7266 12.9099C20.2322 12.9724 19.7805 13.0775 19.3714 13.2252C18.968 13.373 18.6442 13.586 18.3999 13.8644C18.1612 14.1372 18.0419 14.5008 18.0419 14.9553C18.0419 15.586 18.2749 16.0633 18.7408 16.3872C19.2067 16.7053 19.8004 16.8644 20.522 16.8644ZM35.3366 18.8843C34.0696 18.8843 32.9787 18.5974 32.0639 18.0235C31.1548 17.444 30.456 16.6457 29.9673 15.6286C29.4787 14.6116 29.2344 13.4468 29.2344 12.1343C29.2344 10.8048 29.4844 9.63148 29.9844 8.61443C30.4844 7.59171 31.1889 6.79341 32.098 6.21955C33.0071 5.64569 34.0781 5.35875 35.3111 5.35875C36.3054 5.35875 37.1918 5.54341 37.9702 5.91273C38.7486 6.27637 39.3764 6.78773 39.8537 7.44682C40.3366 8.10591 40.6236 8.8758 40.7145 9.75648H38.2344C38.098 9.14284 37.7855 8.61443 37.2969 8.17125C36.8139 7.72807 36.1662 7.50648 35.3537 7.50648C34.6435 7.50648 34.0213 7.69398 33.4872 8.06898C32.9588 8.4383 32.5469 8.96671 32.2514 9.65421C31.956 10.336 31.8082 11.1428 31.8082 12.0747C31.8082 13.0292 31.9531 13.8531 32.2429 14.5463C32.5327 15.2394 32.9418 15.7764 33.4702 16.157C34.0043 16.5377 34.6321 16.7281 35.3537 16.7281C35.8366 16.7281 36.2741 16.64 36.6662 16.4639C37.0639 16.282 37.3963 16.0235 37.6634 15.6883C37.9361 15.3531 38.1264 14.9497 38.2344 14.4781H40.7145C40.6236 15.3247 40.348 16.0803 39.8878 16.7451C39.4276 17.4099 38.8111 17.9326 38.0384 18.3133C37.2713 18.694 36.3707 18.8843 35.3366 18.8843ZM45.9879 10.8474V18.6201H43.4396V1.16557H45.9538V7.65989H46.1158C46.4226 6.95534 46.8913 6.39568 47.522 5.98091C48.1527 5.56614 48.9766 5.35875 49.9936 5.35875C50.8913 5.35875 51.6754 5.54341 52.3459 5.91273C53.022 6.28205 53.5447 6.83318 53.9141 7.56614C54.2891 8.29341 54.4766 9.2025 54.4766 10.2934V18.6201H51.9283V10.6002C51.9283 9.64 51.6811 8.89568 51.1868 8.36728C50.6925 7.83318 50.005 7.56614 49.1243 7.56614C48.522 7.56614 47.9822 7.69398 47.505 7.94966C47.0334 8.20534 46.6612 8.58034 46.3885 9.07466C46.1214 9.5633 45.9879 10.1542 45.9879 10.8474ZM61.6868 18.9099C60.8572 18.9099 60.1072 18.7565 59.4368 18.4497C58.7663 18.1372 58.2351 17.6855 57.843 17.0945C57.4567 16.5036 57.2635 15.7792 57.2635 14.9213C57.2635 14.1826 57.4055 13.5747 57.6896 13.0974C57.9737 12.6201 58.3572 12.2423 58.8402 11.9639C59.3232 11.6855 59.8629 11.4752 60.4595 11.3332C61.0561 11.1911 61.6641 11.0832 62.2834 11.0093C63.0675 10.9184 63.7038 10.8445 64.1925 10.7877C64.6811 10.7252 65.0362 10.6258 65.2578 10.4894C65.4794 10.3531 65.5902 10.1315 65.5902 9.82466V9.765C65.5902 9.02068 65.38 8.44398 64.9595 8.03489C64.5447 7.6258 63.9254 7.42125 63.1016 7.42125C62.2436 7.42125 61.5675 7.61159 61.0732 7.99228C60.5845 8.36728 60.2464 8.78489 60.0589 9.24512L57.6641 8.69966C57.9482 7.90421 58.3629 7.26216 58.9084 6.77353C59.4595 6.27921 60.093 5.92125 60.8089 5.69966C61.5249 5.47239 62.2777 5.35875 63.0675 5.35875C63.5902 5.35875 64.1442 5.42125 64.7294 5.54625C65.3203 5.66557 65.8714 5.88716 66.3828 6.21103C66.8999 6.53489 67.3232 6.99796 67.6527 7.60023C67.9822 8.19682 68.147 8.97239 68.147 9.92694V18.6201H65.6584V16.8303H65.5561C65.3913 17.1599 65.1442 17.4838 64.8146 17.8019C64.4851 18.1201 64.0618 18.3843 63.5447 18.5945C63.0277 18.8048 62.4084 18.9099 61.6868 18.9099ZM62.2408 16.8644C62.9453 16.8644 63.5476 16.7252 64.0476 16.4468C64.5533 16.1684 64.9368 15.8048 65.1982 15.3559C65.4652 14.9014 65.5987 14.4156 65.5987 13.8985V12.211C65.5078 12.3019 65.3317 12.3872 65.0703 12.4667C64.8146 12.5406 64.522 12.6059 64.1925 12.6627C63.8629 12.7139 63.5419 12.7622 63.2294 12.8076C62.9169 12.8474 62.6555 12.8815 62.4453 12.9099C61.951 12.9724 61.4993 13.0775 61.0902 13.2252C60.6868 13.373 60.3629 13.586 60.1186 13.8644C59.88 14.1372 59.7607 14.5008 59.7607 14.9553C59.7607 15.586 59.9936 16.0633 60.4595 16.3872C60.9254 16.7053 61.5192 16.8644 62.2408 16.8644ZM87.6172 5.7508C87.5263 4.94398 87.1513 4.31898 86.4922 3.8758C85.8331 3.42694 85.0036 3.2025 84.0036 3.2025C83.2876 3.2025 82.6683 3.31614 82.1456 3.54341C81.6229 3.765 81.2166 4.07182 80.9268 4.46387C80.6428 4.85023 80.5007 5.29057 80.5007 5.78489C80.5007 6.19966 80.5973 6.55762 80.7905 6.85875C80.9893 7.15989 81.2479 7.41273 81.5661 7.61728C81.8899 7.81614 82.2365 7.98375 82.6058 8.12012C82.9751 8.2508 83.3303 8.35875 83.6712 8.44398L85.3757 8.88716C85.9325 9.02353 86.5036 9.20818 87.0888 9.44114C87.674 9.67409 88.2166 9.98091 88.7166 10.3616C89.2166 10.7423 89.62 11.2139 89.9268 11.7764C90.2393 12.3389 90.3956 13.0122 90.3956 13.7963C90.3956 14.7849 90.1399 15.6627 89.6286 16.4298C89.1229 17.1968 88.3871 17.8019 87.4212 18.2451C86.4609 18.6883 85.299 18.9099 83.9354 18.9099C82.6286 18.9099 81.4979 18.7025 80.5433 18.2877C79.5888 17.873 78.8416 17.2849 78.3018 16.5235C77.7621 15.7565 77.4638 14.8474 77.407 13.7963H80.049C80.1001 14.4269 80.3047 14.9525 80.6626 15.373C81.0263 15.7877 81.4893 16.0974 82.0518 16.3019C82.62 16.5008 83.2422 16.6002 83.9183 16.6002C84.6626 16.6002 85.3246 16.4838 85.9041 16.2508C86.4893 16.0122 86.9496 15.6826 87.2848 15.2622C87.62 14.836 87.7876 14.3389 87.7876 13.7707C87.7876 13.2536 87.6399 12.8303 87.3445 12.5008C87.0547 12.1713 86.6598 11.8985 86.1598 11.6826C85.6655 11.4667 85.1058 11.2764 84.4808 11.1116L82.4183 10.5491C81.0206 10.1684 79.9126 9.60875 79.0945 8.87012C78.282 8.13148 77.8757 7.15421 77.8757 5.9383C77.8757 4.93262 78.1484 4.05478 78.6939 3.30478C79.2393 2.55478 79.978 1.97239 80.9098 1.55762C81.8416 1.13716 82.8928 0.926935 84.0632 0.926935C85.245 0.926935 86.2876 1.13432 87.1911 1.54909C88.1001 1.96387 88.8161 2.53489 89.3388 3.26216C89.8615 3.98375 90.1342 4.8133 90.157 5.7508H87.6172ZM95.017 18.782C94.5511 18.782 94.1506 18.6173 93.8153 18.2877C93.4801 17.9525 93.3125 17.5491 93.3125 17.0775C93.3125 16.6116 93.4801 16.2139 93.8153 15.8843C94.1506 15.5491 94.5511 15.3815 95.017 15.3815C95.483 15.3815 95.8835 15.5491 96.2188 15.8843C96.554 16.2139 96.7216 16.6116 96.7216 17.0775C96.7216 17.39 96.642 17.6769 96.483 17.9383C96.3295 18.194 96.125 18.3985 95.8693 18.5519C95.6136 18.7053 95.3295 18.782 95.017 18.782Z" fill="#FCFCFC"/>
</svg>
