<svg width="39" height="39" viewBox="0 0 39 39" fill="none" xmlns="http://www.w3.org/2000/svg">
<rect x="0.504883" y="0.870117" width="38" height="38" rx="19" fill="#BA45E3"/>
<g clip-path="url(#clip0_1_523)">
<path d="M20.0052 17.0369C19.2538 17.0369 18.5331 17.3354 18.0017 17.8667C17.4704 18.3981 17.1719 19.1188 17.1719 19.8702C17.1719 20.6216 17.4704 21.3423 18.0017 21.8737C18.5331 22.405 19.2538 22.7035 20.0052 22.7035C20.7567 22.7035 21.4773 22.405 22.0087 21.8737C22.54 21.3423 22.8385 20.6216 22.8385 19.8702C22.8385 19.1188 22.54 18.3981 22.0087 17.8667C21.4773 17.3354 20.7567 17.0369 20.0052 17.0369Z" fill="white"/>
<path fill-rule="evenodd" clip-rule="evenodd" d="M16.6049 11.3701C15.2523 11.3701 13.9551 11.9074 12.9986 12.8639C12.0422 13.8203 11.5049 15.1175 11.5049 16.4701V23.2701C11.5049 24.6227 12.0422 25.9199 12.9986 26.8764C13.9551 27.8328 15.2523 28.3701 16.6049 28.3701H23.4049C24.7575 28.3701 26.0547 27.8328 27.0111 26.8764C27.9676 25.9199 28.5049 24.6227 28.5049 23.2701V16.4701C28.5049 15.1175 27.9676 13.8203 27.0111 12.8639C26.0547 11.9074 24.7575 11.3701 23.4049 11.3701H16.6049ZM16.0382 19.8701C16.0382 18.8181 16.4561 17.8092 17.2 17.0653C17.9439 16.3214 18.9529 15.9035 20.0049 15.9035C21.0569 15.9035 22.0658 16.3214 22.8097 17.0653C23.5536 17.8092 23.9715 18.8181 23.9715 19.8701C23.9715 20.9221 23.5536 21.9311 22.8097 22.675C22.0658 23.4189 21.0569 23.8368 20.0049 23.8368C18.9529 23.8368 17.9439 23.4189 17.2 22.675C16.4561 21.9311 16.0382 20.9221 16.0382 19.8701ZM23.9715 15.9035H25.1049V14.7701H23.9715V15.9035Z" fill="white"/>
</g>
<defs>
<clipPath id="clip0_1_523">
<rect width="17" height="17" fill="white" transform="translate(11.0049 11.3701)"/>
</clipPath>
</defs>
</svg>
