<svg width="135" height="47" viewBox="0 0 135 47" fill="none" xmlns="http://www.w3.org/2000/svg">
<path d="M60.108 15.0455H63.2443V27.3182C63.2386 28.4432 63 29.4119 62.5284 30.2244C62.0568 31.0312 61.3977 31.6534 60.5511 32.0909C59.7102 32.5227 58.7301 32.7386 57.6108 32.7386C56.5881 32.7386 55.6676 32.5568 54.8494 32.1932C54.0369 31.8239 53.392 31.2784 52.9148 30.5568C52.4375 29.8352 52.1989 28.9375 52.1989 27.8636H55.3438C55.3494 28.3352 55.4517 28.7415 55.6506 29.0824C55.8551 29.4233 56.1364 29.6847 56.4943 29.8665C56.8523 30.0483 57.2642 30.1392 57.7301 30.1392C58.2358 30.1392 58.6648 30.0341 59.017 29.8239C59.3693 29.608 59.6364 29.2898 59.8182 28.8693C60.0057 28.4489 60.1023 27.9318 60.108 27.3182V15.0455ZM74.8821 26.9943V19.4091H77.9673V32.5H74.9759V30.1733H74.8395C74.544 30.9062 74.0582 31.5057 73.3821 31.9716C72.7116 32.4375 71.8849 32.6705 70.902 32.6705C70.044 32.6705 69.2855 32.4801 68.6264 32.0994C67.973 31.7131 67.4616 31.1534 67.0923 30.4205C66.723 29.6818 66.5384 28.7898 66.5384 27.7443V19.4091H69.6236V27.267C69.6236 28.0966 69.8509 28.7557 70.3054 29.2443C70.7599 29.733 71.3565 29.9773 72.0952 29.9773C72.5497 29.9773 72.9901 29.8665 73.4162 29.6449C73.8423 29.4233 74.1918 29.0938 74.4645 28.6562C74.7429 28.2131 74.8821 27.6591 74.8821 26.9943ZM81.1399 37.4091V19.4091H84.174V21.5739H84.353C84.5121 21.2557 84.7365 20.9176 85.0263 20.5597C85.3161 20.196 85.7081 19.8864 86.2024 19.6307C86.6967 19.3693 87.3274 19.2386 88.0945 19.2386C89.1058 19.2386 90.0178 19.4972 90.8303 20.0142C91.6484 20.5256 92.2962 21.2841 92.7734 22.2898C93.2564 23.2898 93.4979 24.517 93.4979 25.9716C93.4979 27.4091 93.2621 28.6307 92.7905 29.6364C92.3189 30.642 91.6768 31.4091 90.8643 31.9375C90.0518 32.4659 89.1314 32.7301 88.103 32.7301C87.353 32.7301 86.7308 32.6051 86.2365 32.3551C85.7422 32.1051 85.3445 31.804 85.0433 31.4517C84.7479 31.0937 84.5178 30.7557 84.353 30.4375H84.2251V37.4091H81.1399ZM84.1655 25.9545C84.1655 26.8011 84.2848 27.5426 84.5234 28.179C84.7678 28.8153 85.1172 29.3125 85.5717 29.6705C86.032 30.0227 86.5888 30.1989 87.2422 30.1989C87.924 30.1989 88.495 30.017 88.9553 29.6534C89.4155 29.2841 89.7621 28.7812 89.995 28.1449C90.2337 27.5028 90.353 26.7727 90.353 25.9545C90.353 25.142 90.2365 24.4205 90.0036 23.7898C89.7706 23.1591 89.424 22.6648 88.9638 22.3068C88.5036 21.9489 87.9297 21.7699 87.2422 21.7699C86.5831 21.7699 86.0234 21.9432 85.5632 22.2898C85.103 22.6364 84.7536 23.1222 84.5149 23.7472C84.282 24.3722 84.1655 25.108 84.1655 25.9545ZM96.1399 32.5V19.4091H99.2251V32.5H96.1399ZM97.6911 17.5511C97.2024 17.5511 96.782 17.3892 96.4297 17.0653C96.0774 16.7358 95.9013 16.3409 95.9013 15.8807C95.9013 15.4148 96.0774 15.0199 96.4297 14.696C96.782 14.3665 97.2024 14.2017 97.6911 14.2017C98.1854 14.2017 98.6058 14.3665 98.9524 14.696C99.3047 15.0199 99.4808 15.4148 99.4808 15.8807C99.4808 16.3409 99.3047 16.7358 98.9524 17.0653C98.6058 17.3892 98.1854 17.5511 97.6911 17.5511ZM108.935 19.4091V21.7955H101.409V19.4091H108.935ZM103.267 16.2727H106.352V28.5625C106.352 28.9773 106.415 29.2955 106.54 29.517C106.67 29.733 106.841 29.8807 107.051 29.9602C107.261 30.0398 107.494 30.0795 107.75 30.0795C107.943 30.0795 108.119 30.0653 108.278 30.0369C108.443 30.0085 108.568 29.983 108.653 29.9602L109.173 32.3722C109.009 32.429 108.773 32.4915 108.466 32.5597C108.165 32.6278 107.795 32.6676 107.358 32.679C106.585 32.7017 105.889 32.5852 105.27 32.3295C104.651 32.0682 104.159 31.6648 103.795 31.1193C103.438 30.5739 103.261 29.892 103.267 29.0739V16.2727ZM117.17 32.7557C115.857 32.7557 114.724 32.483 113.769 31.9375C112.82 31.3864 112.09 30.608 111.579 29.6023C111.067 28.5909 110.812 27.4006 110.812 26.0312C110.812 24.6847 111.067 23.5028 111.579 22.4858C112.096 21.4631 112.817 20.6676 113.744 20.0994C114.67 19.5256 115.758 19.2386 117.008 19.2386C117.815 19.2386 118.576 19.3693 119.292 19.6307C120.013 19.8864 120.65 20.2841 121.201 20.8239C121.758 21.3636 122.195 22.0511 122.513 22.8864C122.832 23.7159 122.991 24.7045 122.991 25.8523V26.7983H112.261V24.7188H120.033C120.028 24.1278 119.9 23.6023 119.65 23.142C119.4 22.6761 119.05 22.3097 118.602 22.0426C118.158 21.7756 117.641 21.642 117.05 21.642C116.42 21.642 115.866 21.7955 115.388 22.1023C114.911 22.4034 114.539 22.8011 114.272 23.2955C114.011 23.7841 113.877 24.321 113.871 24.9062V26.7216C113.871 27.483 114.011 28.1364 114.289 28.6818C114.567 29.2216 114.957 29.6364 115.457 29.9261C115.957 30.2102 116.542 30.3523 117.212 30.3523C117.661 30.3523 118.067 30.2898 118.431 30.1648C118.795 30.0341 119.11 29.8438 119.377 29.5938C119.644 29.3438 119.846 29.0341 119.982 28.6648L122.863 28.9886C122.681 29.75 122.335 30.4148 121.823 30.983C121.317 31.5455 120.67 31.983 119.88 32.2955C119.09 32.6023 118.187 32.7557 117.17 32.7557ZM125.601 32.5V19.4091H128.592V21.5909H128.729C128.967 20.8352 129.376 20.2528 129.956 19.8438C130.541 19.429 131.209 19.2216 131.959 19.2216C132.129 19.2216 132.32 19.2301 132.53 19.2472C132.746 19.2585 132.925 19.2784 133.067 19.3068V22.1449C132.936 22.0994 132.729 22.0597 132.445 22.0256C132.166 21.9858 131.896 21.9659 131.635 21.9659C131.072 21.9659 130.567 22.0881 130.118 22.3324C129.675 22.571 129.325 22.9034 129.07 23.3295C128.814 23.7557 128.686 24.2472 128.686 24.804V32.5H125.601Z" fill="white" fill-opacity="0.5"/>
<g clip-path="url(#clip0_67_826)">
<path d="M23.5 46.5C36.2025 46.5 46.5 36.2025 46.5 23.5C46.5 10.7975 36.2025 0.5 23.5 0.5C10.7975 0.5 0.5 10.7975 0.5 23.5C0.5 36.2025 10.7975 46.5 23.5 46.5Z" fill="white" fill-opacity="0.38"/>
<path d="M31.3199 33.2117C27.4789 26.973 21.7519 23.4367 14.6794 21.9647C12.1782 21.4472 9.66545 21.453 7.23895 22.4075C5.5772 23.063 5.3242 23.753 6.1062 25.4952C11.4192 24.236 16.3642 25.409 20.9929 28.0827C25.6562 30.7795 29.1349 34.5342 30.7162 39.8702C32.9357 39.1917 33.2232 38.818 32.6884 36.7537C32.3722 35.5405 31.9754 34.2755 31.3199 33.2117Z" fill="white" fill-opacity="0.35"/>
<path d="M35.5229 28.1343C30.5894 20.9468 23.6032 16.9275 15.0644 15.582C12.8047 15.2255 10.4989 15.3233 8.38292 16.4043C7.37092 16.9218 6.47392 17.583 6.23242 18.986C12.8909 17.1518 18.8652 18.7733 24.4887 22.0335C30.1409 25.311 34.5569 29.7098 36.2762 36.4718C37.4722 35.4138 37.6849 34.1143 37.3744 32.9068C36.9489 31.2508 36.4659 29.5085 35.5229 28.1343Z" fill="white" fill-opacity="0.35"/>
<path d="M6.53711 28.5945C6.95686 29.526 7.23286 30.5782 7.85961 31.3315C8.17586 31.7167 9.13611 31.5672 9.80311 31.6592C9.90661 31.6707 10.0101 31.688 10.1136 31.6995C16.0304 32.5792 20.6994 35.4427 24.0344 40.4395C24.2299 40.7327 24.5461 41.1697 24.8049 41.1697C25.8054 41.164 26.8116 41.0087 27.8236 40.911C26.3171 32.5562 13.8856 25.7022 6.53711 28.5945Z" fill="white" fill-opacity="0.35"/>
<path d="M38.2545 21.5852C34.9943 17.0255 30.4978 13.9895 25.3918 11.8275C21.8555 10.3267 18.1928 9.42396 14.3058 9.88971C12.9603 10.0507 11.701 10.436 10.6603 11.31C23.937 11.6435 33.9248 17.3935 40.7903 28.7497C40.8018 27.9965 40.9168 27.157 40.6408 26.4785C39.9508 24.7937 39.2953 23.04 38.2545 21.5852Z" fill="white" fill-opacity="0.35"/>
<path d="M41.3138 19.2046C38.6113 8.91781 27.6288 3.96706 19.5098 6.47406C28.2555 8.19906 35.4315 12.3678 41.3138 19.2046Z" fill="white" fill-opacity="0.35"/>
<path d="M9.43555 34.0743C12.575 38.0591 16.5655 40.3821 21.683 41.1353C19.728 37.4841 12.8395 33.5338 9.43555 34.0743Z" fill="white" fill-opacity="0.35"/>
</g>
<defs>
<clipPath id="clip0_67_826">
<rect width="46" height="46" fill="white" transform="translate(0.5 0.5)"/>
</clipPath>
</defs>
</svg>
