<svg width="25" height="25" viewBox="0 0 25 25" fill="none" xmlns="http://www.w3.org/2000/svg">
<path d="M20.9902 4.38486C18.7237 2.11831 15.7102 0.870117 12.5049 0.870117C9.29959 0.870117 6.28608 2.11831 4.01962 4.38481C1.75307 6.65132 0.504883 9.66482 0.504883 12.8701C0.504883 16.0755 1.75307 19.0889 4.01962 21.3554C6.28608 23.6219 9.29959 24.8701 12.5049 24.8701C15.7103 24.8701 18.7237 23.6219 20.9902 21.3554C23.2567 19.0889 24.5049 16.0754 24.5049 12.8701C24.5049 9.66478 23.2567 6.65132 20.9902 4.38486ZM5.01502 5.38025C6.07022 4.32505 7.30899 3.5202 8.65918 2.99487C8.29955 3.44384 7.96304 3.95989 7.65465 4.5403C7.29647 5.21436 6.98743 5.95466 6.73004 6.74539C5.83838 6.59741 5.0122 6.41544 4.27411 6.20188C4.50544 5.91753 4.75224 5.64303 5.01502 5.38025ZM3.42187 7.41318C4.28517 7.6896 5.27245 7.92271 6.34974 8.10735C6.04974 9.38076 5.87316 10.7511 5.83102 12.1663H1.93626C2.04689 10.4679 2.55698 8.84695 3.42187 7.41318ZM3.34523 18.1969C2.52703 16.7954 2.04356 15.2213 1.93621 13.574H5.83369C5.87972 14.9488 6.05278 16.2801 6.34266 17.5202C5.24325 17.6984 4.23117 17.9256 3.34523 18.1969ZM5.01502 20.36C4.71595 20.0609 4.43742 19.7469 4.17919 19.42C4.94433 19.2078 5.79971 19.0281 6.72047 18.884C6.97969 19.6857 7.29207 20.4358 7.6546 21.1182C7.99069 21.7507 8.36021 22.3064 8.75663 22.7825C7.36866 22.2583 6.09558 21.4405 5.01502 20.36ZM11.801 23.2818C10.7319 22.9823 9.72053 22.006 8.89777 20.4576C8.61001 19.9161 8.35726 19.3254 8.14074 18.6957C9.29996 18.5681 10.5335 18.4927 11.801 18.475V23.2818ZM11.801 17.0672C10.3953 17.0864 9.02523 17.1746 7.74212 17.3253C7.45908 16.1553 7.28879 14.8889 7.24205 13.574H11.8011V17.0672H11.801ZM11.801 12.1663H7.23938C7.28208 10.8147 7.4551 9.5129 7.74694 8.31309C9.02185 8.47246 10.3891 8.5694 11.801 8.59715V12.1663ZM11.801 7.18925C10.5286 7.16361 9.29776 7.08065 8.14674 6.94527C8.36195 6.32221 8.61273 5.73739 8.89777 5.20081C9.72048 3.65244 10.7319 2.67612 11.801 2.37664V7.18925ZM21.6323 7.48794C22.4701 8.90324 22.9648 10.4973 23.0736 12.1663H19.1789C19.1372 10.7673 18.964 9.4124 18.6703 8.15155C19.7547 7.97643 20.7542 7.75363 21.6323 7.48794ZM19.9947 5.38025C20.2774 5.66286 20.5414 5.95911 20.7876 6.26666C20.0342 6.47239 19.1952 6.647 18.2937 6.78754C18.0336 5.98091 17.7198 5.22636 17.3552 4.5403C17.0468 3.95989 16.7103 3.44384 16.3507 2.99487C17.7008 3.5202 18.9396 4.32505 19.9947 5.38025ZM13.2088 13.574H17.7678C17.7207 14.8991 17.5482 16.1751 17.2611 17.3527C15.9864 17.1942 14.6197 17.0982 13.2088 17.0712V13.574ZM13.2088 12.1663V8.60184C14.6153 8.58337 15.9865 8.49585 17.2708 8.34571C17.5579 9.53648 17.7281 10.8269 17.7704 12.1663H13.2088ZM13.2087 2.37664H13.2087C14.2779 2.67612 15.2892 3.65244 16.112 5.20081C16.4016 5.74583 16.6558 6.34072 16.8732 6.97494C15.7125 7.10207 14.4776 7.17693 13.2087 7.19404V2.37664ZM13.2088 23.2818V18.4791C14.48 18.504 15.7099 18.5862 16.8605 18.7208C16.6459 19.341 16.3959 19.9233 16.112 20.4576C15.2893 22.006 14.2779 22.9823 13.2088 23.2818ZM19.9947 20.36C18.9142 21.4405 17.6412 22.2583 16.2531 22.7824C16.6496 22.3064 17.0191 21.7507 17.3552 21.1182C17.7124 20.446 18.0207 19.7078 18.2777 18.9195C19.1901 19.0701 20.0342 19.2563 20.7862 19.4754C20.5404 19.7822 20.2768 20.0779 19.9947 20.36ZM21.6271 18.2612C20.7536 17.9804 19.7521 17.7441 18.6587 17.5576C18.9538 16.307 19.1297 14.9626 19.1762 13.574H23.0737C22.9646 15.2464 22.4682 16.8437 21.6271 18.2612Z" fill="white"/>
</svg>
