<svg width="40" height="40" viewBox="0 0 40 40" fill="none" xmlns="http://www.w3.org/2000/svg">
<g clip-path="url(#clip0_117_790)">
<path d="M34.5455 0H5.45455C2.44208 0 0 2.44208 0 5.45455V34.5455C0 37.5579 2.44208 40 5.45455 40H34.5455C37.5579 40 40 37.5579 40 34.5455V5.45455C40 2.44208 37.5579 0 34.5455 0Z" fill="#0077B5"/>
<path d="M14.4091 10.9091C14.4091 11.5833 14.2091 12.2425 13.8345 12.8031C13.4599 13.3637 12.9275 13.8007 12.3046 14.0587C11.6816 14.3167 10.9962 14.3842 10.3349 14.2527C9.67359 14.1211 9.06615 13.7965 8.58938 13.3197C8.11261 12.8429 7.78793 12.2355 7.65639 11.5742C7.52485 10.9129 7.59236 10.2274 7.85038 9.60449C8.10841 8.98156 8.54536 8.44913 9.10598 8.07454C9.66661 7.69994 10.3257 7.5 11 7.5C11.9041 7.5 12.7712 7.85917 13.4106 8.4985C14.0499 9.13783 14.4091 10.0049 14.4091 10.9091Z" fill="white"/>
<path d="M13.6363 16.5906V31.6519C13.6369 31.763 13.6155 31.8732 13.5734 31.976C13.5313 32.0788 13.4693 32.1723 13.391 32.2511C13.3126 32.3299 13.2195 32.3924 13.1169 32.435C13.0143 32.4777 12.9042 32.4997 12.7931 32.4997H9.19995C9.08884 32.5 8.97877 32.4783 8.87605 32.4359C8.77334 32.3935 8.68002 32.3313 8.60145 32.2527C8.52289 32.1741 8.46062 32.0808 8.41824 31.9781C8.37586 31.8754 8.3542 31.7653 8.3545 31.6542V16.5906C8.3545 16.3663 8.44357 16.1513 8.60212 15.9927C8.76068 15.8342 8.97572 15.7451 9.19995 15.7451H12.7931C13.017 15.7457 13.2314 15.8351 13.3895 15.9935C13.5476 16.152 13.6363 16.3667 13.6363 16.5906Z" fill="white"/>
<path d="M32.4181 24.4315V31.7224C32.4184 31.8245 32.3985 31.9258 32.3596 32.0202C32.3206 32.1146 32.2634 32.2004 32.1912 32.2727C32.1189 32.3449 32.0331 32.4022 31.9387 32.4411C31.8442 32.4801 31.743 32.5 31.6409 32.4997H27.7772C27.6751 32.5 27.5739 32.4801 27.4794 32.4411C27.385 32.4022 27.2992 32.3449 27.227 32.2727C27.1547 32.2004 27.0975 32.1146 27.0585 32.0202C27.0196 31.9258 26.9997 31.8245 27 31.7224V24.6565C27 23.6019 27.3091 20.0383 24.2431 20.0383C21.8681 20.0383 21.3841 22.4769 21.2886 23.5724V31.7224C21.2886 31.9266 21.2083 32.1226 21.065 32.268C20.9217 32.4135 20.7269 32.4967 20.5227 32.4997H16.7909C16.6889 32.4997 16.5879 32.4795 16.4938 32.4405C16.3996 32.4014 16.3141 32.3441 16.2421 32.2719C16.1701 32.1997 16.113 32.114 16.0742 32.0197C16.0354 31.9254 16.0156 31.8244 16.0159 31.7224V16.5247C16.0156 16.4227 16.0354 16.3217 16.0742 16.2274C16.113 16.1331 16.1701 16.0474 16.2421 15.9752C16.3141 15.903 16.3996 15.8457 16.4938 15.8066C16.5879 15.7675 16.6889 15.7474 16.7909 15.7474H20.5227C20.7288 15.7474 20.9265 15.8293 21.0723 15.975C21.2181 16.1208 21.3 16.3185 21.3 16.5247V17.8383C22.1818 16.5156 23.4886 15.4951 26.2772 15.4951C32.4545 15.4951 32.4181 21.2633 32.4181 24.4315Z" fill="white"/>
</g>
<defs>
<clipPath id="clip0_117_790">
<rect width="40" height="40" fill="white"/>
</clipPath>
</defs>
</svg>
