<svg width="201" height="51" viewBox="0 0 201 51" fill="none" xmlns="http://www.w3.org/2000/svg">
<g clip-path="url(#clip0_67_797)">
<path d="M73.0153 27.0187H79.4406C80.344 27.0187 81.0761 27.7586 81.0761 28.662C81.0761 29.5732 80.344 30.3053 79.4406 30.3053H71.6913C71.5667 30.3053 71.4499 30.352 71.3642 30.4299L69.0278 32.4471C68.6695 32.7586 68.8876 33.3427 69.3549 33.3427H79.0512C79.0512 33.3427 79.0589 33.3427 79.0589 33.3349C79.0589 33.3271 79.0667 33.3271 79.0667 33.3271C79.1913 33.3349 79.3082 33.3427 79.4328 33.3427C82.0029 33.3427 84.0901 31.2477 84.0901 28.662C84.0901 26.2087 82.2132 24.1916 79.8144 23.9969C79.8144 23.9969 79.8066 23.9969 79.8066 23.9891C79.8066 23.9813 79.8066 23.9813 79.7988 23.9813H72.8829C71.9795 23.9813 71.2474 23.2415 71.2474 22.338C71.2474 21.4268 71.9795 20.6947 72.8829 20.6947H80.6166C80.7412 20.6947 80.8658 20.648 80.9593 20.5623L83.1322 18.5452C83.4748 18.2259 83.249 17.6573 82.7895 17.6573H73.0153C72.9764 17.6573 72.9297 17.6573 72.8907 17.6573C70.3206 17.6573 68.2334 19.7524 68.2334 22.338C68.2334 24.9237 70.3206 27.0187 72.8907 27.0187C72.9297 27.0187 72.9686 27.0187 73.0153 27.0187Z" fill="white" fill-opacity="0.5"/>
<path d="M110.414 17.6495C110.134 17.6495 109.908 17.8754 109.908 18.1635V32.8364C109.908 33.1168 110.134 33.3504 110.414 33.3504H122.174C122.315 33.3504 122.447 33.2881 122.548 33.1869L124.02 31.6059C124.324 31.2788 124.098 30.7414 123.646 30.7414H113.382C113.101 30.7414 112.875 30.5156 112.875 30.2274V18.1557C112.875 17.8754 112.65 17.6417 112.369 17.6417H110.414V17.6495Z" fill="white" fill-opacity="0.5"/>
<path fill-rule="evenodd" clip-rule="evenodd" d="M91.5821 17.6495C91.5821 17.6573 91.5821 17.6573 91.5821 17.6495C90.079 17.7196 88.8719 18.9268 88.8018 20.4299V30.2975C88.8018 30.3364 88.8018 30.3832 88.8018 30.4221C88.8018 31.9875 90.0323 33.2648 91.5821 33.3271H102.252C103.794 33.257 105.032 31.9797 105.032 30.4221C105.032 30.3832 105.032 30.3364 105.032 30.2975V20.4377C104.97 18.9346 103.763 17.7196 102.26 17.6573H91.5821V17.6495ZM93.5759 20.4377C93.5681 20.4377 93.5681 20.4377 93.5759 20.4377C92.6335 20.4766 91.8781 21.2399 91.8391 22.19V28.3972C91.8391 28.4206 91.8391 28.4517 91.8391 28.4751C91.8391 29.4564 92.6102 30.2664 93.5759 30.3053H100.266C101.232 30.2664 102.003 29.4564 102.003 28.4751C102.003 28.4517 102.003 28.4206 102.003 28.3972V22.19C101.964 21.2399 101.208 20.4844 100.266 20.4377H93.5759Z" fill="white" fill-opacity="0.5"/>
<path fill-rule="evenodd" clip-rule="evenodd" d="M141.116 32.8365C141.116 33.1169 141.342 33.3505 141.622 33.3505H143.616C143.896 33.3505 144.122 33.1247 144.122 32.8365V20.6948C144.122 20.6558 144.122 20.6091 144.122 20.5701C144.122 19.0047 142.899 17.7275 141.373 17.6652H131.131C131.092 17.6652 131.046 17.6652 131.007 17.6652C129.418 17.6652 128.133 18.9658 128.133 20.5779C128.133 20.6169 128.133 20.6636 128.133 20.7025V32.8443C128.133 33.1247 128.359 33.3583 128.639 33.3583H130.633C130.913 33.3583 131.139 33.1324 131.139 32.8443V27.7898C131.139 27.5094 131.365 27.2757 131.645 27.2757H140.633C140.913 27.2757 141.139 27.5016 141.139 27.7898V32.8365H141.116ZM131.123 24.4798V21.9564C131.123 20.9751 131.91 20.1807 132.876 20.1807H139.371C140.337 20.1807 141.123 20.9751 141.123 21.9564V24.4798C141.123 24.7602 140.898 24.9938 140.617 24.9938H131.63C131.349 24.9938 131.123 24.768 131.123 24.4798Z" fill="white" fill-opacity="0.5"/>
<path fill-rule="evenodd" clip-rule="evenodd" d="M183.21 33.3505C182.93 33.3505 182.704 33.1246 182.704 32.8365V27.782C182.704 27.5016 182.478 27.2679 182.198 27.2679H173.109C172.829 27.2679 172.603 27.4938 172.603 27.782V32.8365C172.603 33.1168 172.377 33.3505 172.097 33.3505H170.087C169.807 33.3505 169.581 33.1246 169.581 32.8365V20.6947C169.581 20.6558 169.581 20.6091 169.581 20.5701C169.581 18.9658 170.882 17.6573 172.486 17.6573C172.525 17.6573 172.572 17.6573 172.611 17.6573H182.961C184.503 17.7274 185.741 19.0047 185.741 20.5623C185.741 20.6013 185.741 20.648 185.741 20.6869V32.8287C185.741 33.1091 185.516 33.3427 185.235 33.3427H183.21V33.3505ZM172.603 21.9564V24.4798C172.603 24.7601 172.829 24.9938 173.109 24.9938H182.198C182.478 24.9938 182.704 24.7679 182.704 24.4798V21.9564C182.704 20.9751 181.91 20.1807 180.936 20.1807H174.371C173.389 20.1807 172.603 20.9751 172.603 21.9564Z" fill="white" fill-opacity="0.5"/>
<path d="M151.629 17.6495C151.777 17.6495 151.917 17.7118 152.011 17.8287L160.951 28.4907C161.255 28.8489 161.839 28.6308 161.839 28.1558V18.1636C161.839 17.8832 162.065 17.6495 162.345 17.6495H164.339C164.62 17.6495 164.845 17.8754 164.845 18.1636V32.8364C164.845 33.1168 164.62 33.3505 164.339 33.3505H161.863C161.855 33.3505 161.847 33.3427 161.847 33.3349C161.847 33.3271 161.847 33.3271 161.839 33.3193L152.743 22.7352C152.439 22.3769 151.855 22.6028 151.855 23.0701V32.8442C151.855 33.1246 151.629 33.3583 151.349 33.3583H149.339C149.059 33.3583 148.833 33.1324 148.833 32.8442V18.1636C148.833 17.8832 149.059 17.6495 149.339 17.6495H151.629Z" fill="white" fill-opacity="0.5"/>
<path d="M21.8707 33.8878C22.1199 33.6386 22.4548 33.4984 22.8053 33.4984H55.243C55.8349 33.4984 56.1308 34.2149 55.7103 34.6277L49.3006 41.0374C49.0514 41.2866 48.7165 41.4268 48.366 41.4268H15.9283C15.3364 41.4268 15.0405 40.7103 15.4611 40.2975L21.8707 33.8878Z" fill="white" fill-opacity="0.5"/>
<path d="M21.8707 9.96265C22.1199 9.71343 22.4548 9.57324 22.8053 9.57324H55.243C55.8349 9.57324 56.1308 10.2898 55.7103 10.7025L49.3006 17.1044C49.0514 17.3536 48.7165 17.4938 48.366 17.4938H15.9283C15.3364 17.4938 15.0405 16.7773 15.4611 16.3645L21.8707 9.96265Z" fill="white" fill-opacity="0.5"/>
<path d="M49.3006 21.8474C49.0514 21.5982 48.7165 21.458 48.366 21.458H15.9283C15.3364 21.458 15.0405 22.1745 15.4611 22.5873L21.8707 28.9892C22.1199 29.2384 22.4548 29.3786 22.8053 29.3786H55.243C55.8349 29.3786 56.1308 28.6621 55.7103 28.2493L49.3006 21.8474Z" fill="white" fill-opacity="0.5"/>
</g>
<defs>
<clipPath id="clip0_67_797">
<rect width="200" height="50.0779" fill="white" transform="translate(0.5 0.46106)"/>
</clipPath>
</defs>
</svg>
