<svg width="39" height="39" viewBox="0 0 39 39" fill="none" xmlns="http://www.w3.org/2000/svg">
<g clip-path="url(#clip0_1_520)">
<path d="M39.0049 19.8701C39.0049 24.9092 37.0031 29.742 33.4399 33.3051C29.8767 36.8683 25.044 38.8701 20.0049 38.8701C14.9658 38.8701 10.133 36.8683 6.56985 33.3051C3.00666 29.742 1.00488 24.9092 1.00488 19.8701C1.00488 14.831 3.00666 9.99828 6.56985 6.43509C10.133 2.8719 14.9658 0.870117 20.0049 0.870117C25.044 0.870117 29.8767 2.8719 33.4399 6.43509C37.0031 9.99828 39.0049 14.831 39.0049 19.8701ZM20.6865 14.8969C18.8372 15.6664 15.1433 17.2576 9.60476 19.6706C8.70701 20.0269 8.23597 20.3768 8.19163 20.7204C8.12038 21.2975 8.84476 21.5255 9.83038 21.8366L10.246 21.9672C11.215 22.2831 12.5213 22.6512 13.1981 22.6655C13.8156 22.6813 14.5028 22.428 15.2596 21.9055C20.4355 18.4127 23.1066 16.6472 23.2729 16.6092C23.3916 16.5807 23.5579 16.5475 23.6671 16.6472C23.7764 16.747 23.7669 16.9322 23.755 16.9821C23.6838 17.2885 20.8409 19.9295 19.3708 21.2975C18.9124 21.725 18.587 22.0266 18.5205 22.0955C18.3741 22.2452 18.2253 22.3925 18.074 22.5372C17.1715 23.4065 16.497 24.0572 18.1096 25.1212C18.8863 25.6342 19.5085 26.0546 20.1284 26.4774C20.8029 26.9381 21.4774 27.3965 22.3514 27.9712C22.573 28.1169 22.7868 28.2649 22.9926 28.4154C23.7788 28.9759 24.4889 29.4794 25.3605 29.3986C25.8688 29.3511 26.3936 28.8761 26.6596 27.4511C27.289 24.0857 28.5264 16.7969 28.8114 13.7925C28.8293 13.5428 28.8189 13.2918 28.7805 13.0444C28.7575 12.8449 28.6609 12.6611 28.5098 12.529C28.2934 12.3804 28.036 12.3032 27.7735 12.3081C27.061 12.32 25.9614 12.7024 20.6865 14.8969Z" fill="#BA45E3"/>
<path fill-rule="evenodd" clip-rule="evenodd" d="M28.8296 11.0001C29.0878 10.885 29.3704 10.8453 29.648 10.8851C29.9256 10.925 30.1881 11.0429 30.4081 11.2266C30.628 11.4103 30.7975 11.6531 30.8988 11.9297C31.0001 12.2063 31.0296 12.5066 30.9841 12.7994L28.6144 28.0227C28.3845 29.4911 26.8633 30.3332 25.5917 29.6018C24.528 28.9898 22.9482 28.047 21.5273 27.0633C20.8168 26.5708 18.6404 24.994 18.9078 23.8719C19.1377 22.9125 22.7946 19.3072 24.8843 17.1638C25.7045 16.3217 25.3305 15.8359 24.3619 16.6105C21.9567 18.5337 18.095 21.4584 16.8182 22.2817C15.6918 23.0076 15.1046 23.1316 14.4025 23.0076C13.1215 22.7819 11.9335 22.4322 10.9639 22.0062C9.6537 21.4308 9.71743 19.523 10.9629 18.9675L28.8296 11.0001Z" fill="white"/>
</g>
<defs>
<clipPath id="clip0_1_520">
<rect width="38" height="38" fill="white" transform="translate(0.504883 0.870117)"/>
</clipPath>
</defs>
</svg>
