<svg width="16" height="13" viewBox="0 0 16 13" fill="none" xmlns="http://www.w3.org/2000/svg">
<path d="M14.9368 0.734106C14.8624 0.667973 14.7756 0.628706 14.6764 0.616306C14.5772 0.603906 14.4821 0.618373 14.3912 0.659706L1.34635 6.33891C1.18102 6.41331 1.05288 6.52697 0.961951 6.67991C0.871018 6.83284 0.831751 6.99817 0.844151 7.17591C0.856551 7.35364 0.916484 7.51277 1.02395 7.65331C1.13142 7.79384 1.27195 7.88891 1.44555 7.93851L4.65715 8.90571C4.74808 8.95531 4.84728 8.97391 4.95475 8.96151C5.06222 8.94911 5.15728 8.90984 5.23995 8.84371C5.32262 8.77757 5.37842 8.69284 5.40735 8.58951C5.43628 8.48617 5.43628 8.38284 5.40735 8.27951C5.37842 8.17617 5.32468 8.09144 5.24615 8.02531C5.16762 7.95917 5.07462 7.91784 4.96715 7.90131L2.26395 7.08291L12.4568 2.64371L6.40555 8.69491L6.38075 8.73211C6.38075 8.74037 6.37868 8.74451 6.37455 8.74451C6.37042 8.74451 6.36835 8.74864 6.36835 8.75691L6.34355 8.79411C6.34355 8.80237 6.33942 8.81064 6.33115 8.81891L6.31875 8.83131C6.31875 8.84784 6.31462 8.86024 6.30635 8.86851C6.29808 8.87677 6.29808 8.88091 6.30635 8.88091L6.29395 8.93051V9.04211L6.45515 12.0429C6.47168 12.2082 6.52748 12.355 6.62255 12.4831C6.71762 12.6112 6.84162 12.7022 6.99455 12.7559C7.14748 12.8096 7.30455 12.8158 7.46575 12.7745C7.62695 12.7332 7.76128 12.6546 7.86875 12.5389L9.07155 11.2121L11.4524 12.8489C11.5681 12.9316 11.6962 12.9812 11.8368 12.9977C11.9773 13.0142 12.1137 12.9977 12.246 12.9481C12.3782 12.8985 12.4919 12.8179 12.587 12.7063C12.682 12.5947 12.742 12.4686 12.7668 12.3281L15.1104 1.24251C15.1269 1.15157 15.1207 1.06064 15.0918 0.969706C15.0628 0.878773 15.0112 0.800239 14.9368 0.734106ZM7.48435 11.4105L7.40995 10.0589L8.20355 10.6169L7.48435 11.4105ZM11.7996 11.8197L7.64555 8.94291L13.6844 2.90411L11.7996 11.8197Z" fill="#F7F7F8"/>
</svg>
