<svg width="41" height="41" viewBox="0 0 41 41" fill="none" xmlns="http://www.w3.org/2000/svg">
<rect x="0.504883" y="0.870117" width="40" height="40" rx="20" fill="#BA45E3"/>
<path d="M31.5049 15.9812V20.4257C31.5049 20.6614 31.4157 20.8875 31.2571 21.0542C31.0984 21.2209 30.8831 21.3146 30.6587 21.3146C28.8911 21.3189 27.1489 20.8724 25.5818 20.0135V24.4257C25.5818 26.6653 24.7349 28.8132 23.2274 30.3968C21.7199 31.9804 19.6753 32.8701 17.5433 32.8701C15.4114 32.8701 13.3668 31.9804 11.8593 30.3968C10.3518 28.8132 9.50488 26.6653 9.50488 24.4257C9.50488 20.3257 12.3511 16.7012 16.126 15.9946C16.2478 15.9718 16.3729 15.9774 16.4924 16.0109C16.6119 16.0444 16.7229 16.1051 16.8177 16.1885C16.9125 16.272 16.9887 16.3763 17.041 16.4941C17.0933 16.6118 17.1203 16.7402 17.1203 16.8701V21.6135C17.1203 21.7817 17.0749 21.9465 16.9894 22.0887C16.9038 22.2309 16.7816 22.3447 16.6369 22.4168C16.2949 22.5872 16.0027 22.8509 15.7907 23.1803C15.5787 23.5098 15.4548 23.893 15.4319 24.2899C15.4089 24.6868 15.4877 25.0829 15.6602 25.4369C15.8326 25.7909 16.0923 26.0898 16.4121 26.3025C16.732 26.5151 17.1003 26.6337 17.4787 26.6458C17.857 26.658 18.2316 26.5633 18.5632 26.3716C18.8948 26.1799 19.1714 25.8982 19.3641 25.5559C19.5568 25.2136 19.6586 24.8233 19.6587 24.4257V9.75901C19.6587 9.52326 19.7479 9.29717 19.9066 9.13047C20.0652 8.96377 20.2805 8.87012 20.5049 8.87012H24.7357C24.9601 8.87012 25.1753 8.96377 25.334 9.13047C25.4927 9.29717 25.5818 9.52326 25.5818 9.75901C25.5832 11.173 26.1185 12.5287 27.0703 13.5286C28.0222 14.5285 29.3127 15.0909 30.6587 15.0923C30.8831 15.0923 31.0984 15.186 31.2571 15.3527C31.4157 15.5194 31.5049 15.7455 31.5049 15.9812Z" fill="white"/>
</svg>
