<svg width="40" height="40" viewBox="0 0 40 40" fill="none" xmlns="http://www.w3.org/2000/svg">
<g clip-path="url(#clip0_117_798)">
<path d="M11.8328 40C8.68516 40 5.71641 38.7656 3.47578 36.5242C1.23438 34.2828 0 31.3148 0 28.1672V11.8328C0 8.68516 1.23438 5.71641 3.47578 3.47578C5.71719 1.23516 8.68516 0 11.8328 0H28.1672C31.3148 0 34.2836 1.23438 36.5242 3.47578C38.7656 5.71719 40 8.68516 40 11.8328V28.1672C40 31.3148 38.7656 34.2836 36.5242 36.5242C34.2828 38.7656 31.3148 40 28.1672 40H11.8328Z" fill="url(#paint0_linear_117_798)"/>
<path d="M28.4219 27.6562L27.2344 25.8125L23.5469 20.0625L30.5156 9.0625H23.5156L19.9844 14.5312L16.4844 9.0625H9.45312L16.4531 20.0625L9.45312 30.9375H16.6094L19.9844 25.6562L21.3281 27.75L23.3594 30.9375H24.9219L24.0781 29.625L22.9531 27.8125L22.7969 27.5625L20.7656 24.4062L19.9844 23.1875L18.0156 20.0625L17.2344 18.8437L11.8594 10.375H15.7656L19.2031 15.75L19.9844 16.9687L21.9844 20.0625L22.7656 21.2812L27.2656 28.3125L28.1094 29.625L28.9844 30.9375H30.5469L28.4219 27.6562ZM19.2031 24.4062L15.8906 29.625H11.8594L17.2344 21.2812L19.2031 24.4062ZM20.7656 15.75L24.2344 10.375H28.1406L22.7656 18.8437L20.7656 15.75Z" fill="white"/>
</g>
<defs>
<linearGradient id="paint0_linear_117_798" x1="3.5618" y1="3.28781" x2="36.1314" y2="36.4002" gradientUnits="userSpaceOnUse">
<stop stop-color="#5AA4FE"/>
<stop offset="1" stop-color="#0255BA"/>
</linearGradient>
<clipPath id="clip0_117_798">
<rect width="40" height="40" fill="white"/>
</clipPath>
</defs>
</svg>
