<svg width="22" height="15" viewBox="0 0 22 15" fill="none" xmlns="http://www.w3.org/2000/svg">
<path d="M18.8964 6.82473C19.3659 6.82473 19.8001 6.70502 20.1992 6.46559C20.5982 6.22616 20.9057 5.89988 21.1217 5.48675C20.7461 5.66515 20.3517 5.78017 19.9386 5.83181C19.5255 5.88345 19.1171 5.86233 18.7133 5.76843C18.6851 5.60881 18.6476 5.44919 18.6006 5.28958C18.4504 4.63232 18.1617 4.04314 17.7345 3.52203C17.3073 3.00092 16.7908 2.59718 16.1852 2.31081C15.5796 2.02443 14.9388 1.88594 14.2628 1.89533L14.7416 1.72632C14.7698 1.71693 14.8496 1.69346 14.981 1.6559C15.3191 1.57139 15.5632 1.49628 15.7134 1.43055C15.9763 1.2991 16.0772 1.16061 16.0162 1.01507C15.9552 0.86954 15.7228 0.848414 15.3191 0.951697C15.0937 1.00803 14.7604 1.11601 14.3191 1.27563L14.0233 1.3883C14.305 1.28502 14.5257 1.18174 14.6853 1.07845C14.9388 0.918835 15.0796 0.745131 15.1078 0.557344C14.4975 0.651237 13.9623 0.90475 13.5022 1.31788C13.6712 1.14887 13.7745 0.947002 13.8121 0.712269C13.1079 1.15357 12.4694 1.85307 11.8966 2.81079C11.4929 3.5056 11.0657 4.44923 10.615 5.64168C10.1549 5.16282 9.6385 4.74969 9.06575 4.40228C7.36628 3.51029 5.61517 2.74037 3.81241 2.0925C3.81241 2.65586 3.97203 3.17463 4.29127 3.64879C4.61051 4.12295 5.03303 4.46331 5.55883 4.66988C5.13631 4.6511 4.71848 4.69805 4.30535 4.81072C4.40864 5.30835 4.6199 5.71679 4.93913 6.03603C5.31471 6.4116 5.86868 6.68389 6.60105 6.8529C6.33815 6.84351 6.08463 6.88577 5.84051 6.97966C5.59639 7.07355 5.38043 7.21439 5.19265 7.40218C5.43677 7.86226 5.79122 8.20497 6.25599 8.43031C6.72076 8.65566 7.20666 8.72138 7.71369 8.62749C7.3475 8.78711 7.10338 8.97959 6.98132 9.20493C6.86865 9.4115 6.86395 9.61572 6.96723 9.81759C7.07052 10.0195 7.24891 10.1744 7.50243 10.2824C7.75594 10.3903 8.03762 10.4209 8.34747 10.3739C7.67143 11.0687 6.87334 11.5476 5.95318 11.8105C5.05181 12.0734 4.14573 12.1015 3.23497 11.895C2.30542 11.679 1.48385 11.2424 0.770264 10.5852C1.76553 11.9372 2.99554 12.9607 4.46028 13.6555C5.81234 14.294 7.27708 14.6226 8.85449 14.6414C10.3568 14.6508 11.8074 14.3785 13.2065 13.8245C14.6055 13.2705 15.7885 12.5006 16.7556 11.5147C17.7791 10.4725 18.4504 9.29413 18.7696 7.97962C19.2297 8.01718 19.6734 7.9538 20.1006 7.78949C20.5278 7.62518 20.901 7.37871 21.2203 7.05008C20.4316 7.16275 19.6569 7.08764 18.8964 6.82473Z" fill="#F7F7F8"/>
</svg>
