<svg width="16" height="17" viewBox="0 0 16 17" fill="none" xmlns="http://www.w3.org/2000/svg">
<path d="M7.98999 0.200195C6.90199 0.200195 5.86199 0.408195 4.86999 0.824195C3.92066 1.22953 3.07532 1.80286 2.33399 2.54419C1.59266 3.28553 1.01932 4.13086 0.61399 5.08019C0.19799 6.0722 -0.0100098 7.1122 -0.0100098 8.2002C-0.0100098 9.2882 0.19799 10.3282 0.61399 11.3202C1.01932 12.2695 1.59266 13.1149 2.33399 13.8562C3.07532 14.5975 3.92066 15.1709 4.86999 15.5762C5.86199 15.9922 6.90199 16.2002 7.98999 16.2002C9.07799 16.2002 10.118 15.9922 11.11 15.5762C12.0593 15.1709 12.9047 14.5975 13.646 13.8562C14.3873 13.1149 14.9607 12.2695 15.366 11.3202C15.782 10.3282 15.99 9.2882 15.99 8.2002C15.99 7.1122 15.7767 6.07753 15.35 5.0962C14.9447 4.1362 14.374 3.28819 13.638 2.55219C12.902 1.81619 12.054 1.24553 11.094 0.840195C10.1127 0.413527 9.07799 0.200195 7.98999 0.200195ZM13.286 3.89619C13.7767 4.49353 14.1527 5.15753 14.414 5.8882C14.6753 6.61886 14.8113 7.37353 14.822 8.15219C13.254 7.84286 11.67 7.7682 10.07 7.92819L9.90999 7.57619C9.83532 7.3842 9.71266 7.10686 9.54199 6.74419L9.46199 6.5842C10.2087 6.30686 10.9047 5.94153 11.55 5.48819C12.1953 5.03486 12.774 4.5042 13.286 3.89619ZM7.98999 1.38419C8.82199 1.38419 9.62732 1.53086 10.406 1.82419C11.1847 2.11753 11.8887 2.54153 12.518 3.09619C12.0487 3.67219 11.51 4.16819 10.902 4.5842C10.294 5.00019 9.63799 5.32553 8.93399 5.56019C8.17666 4.17353 7.32866 2.84019 6.38999 1.56019C6.91266 1.44286 7.44599 1.38419 7.98999 1.38419ZM5.07799 2.02419C5.99532 3.29353 6.84332 4.61086 7.62199 5.97619C5.55266 6.5202 3.44599 6.79753 1.30199 6.8082C1.52599 5.76286 1.96866 4.81886 2.62999 3.97619C3.29132 3.13353 4.10732 2.48286 5.07799 2.02419ZM1.15799 8.2162V8.00819C3.54732 8.01886 5.88866 7.69353 8.18199 7.0322C8.43799 7.5442 8.62466 7.92819 8.74199 8.18419L8.46999 8.26419C7.31799 8.68019 6.26466 9.27486 5.30999 10.0482C4.35532 10.8215 3.55799 11.7309 2.91799 12.7762C2.35266 12.1469 1.91799 11.4402 1.61399 10.6562C1.30999 9.8722 1.15799 9.05886 1.15799 8.2162ZM7.98999 15.0482C7.23266 15.0482 6.49399 14.9255 5.77399 14.6802C5.05399 14.4349 4.39532 14.0775 3.79799 13.6082C4.38466 12.5842 5.14199 11.7042 6.06999 10.9682C6.99799 10.2322 8.02732 9.6882 9.15799 9.33619L9.20599 9.3202C9.85666 11.0055 10.342 12.7335 10.662 14.5042C9.80866 14.8669 8.91799 15.0482 7.98999 15.0482ZM11.814 13.8802C11.5153 12.2162 11.0727 10.5895 10.486 9.0002C11.926 8.78686 13.3447 8.88286 14.742 9.2882C14.5927 10.2269 14.2647 11.0935 13.758 11.8882C13.2513 12.6829 12.6033 13.3469 11.814 13.8802Z" fill="#F7F7F8"/>
</svg>
