<svg width="16" height="17" viewBox="0 0 16 17" fill="none" xmlns="http://www.w3.org/2000/svg">
<path d="M10.998 0.200195H4.99799C4.09132 0.200195 3.24866 0.429528 2.46999 0.888195C1.71266 1.32553 1.11532 1.92286 0.67799 2.68019C0.219324 3.44819 -0.0100098 4.28553 -0.0100098 5.19219V11.1922C-0.0100098 12.0989 0.219324 12.9415 0.67799 13.7202C1.11532 14.4775 1.71266 15.0749 2.46999 15.5122C3.24866 15.9709 4.09132 16.2002 4.99799 16.2002H10.998C11.9047 16.2002 12.742 15.9709 13.51 15.5122C14.2673 15.0749 14.8647 14.4775 15.302 13.7202C15.7607 12.9415 15.99 12.0989 15.99 11.1922V5.19219C15.99 4.28553 15.7607 3.44819 15.302 2.68019C14.8647 1.92286 14.2673 1.32553 13.51 0.888195C12.742 0.429528 11.9047 0.200195 10.998 0.200195ZM14.486 11.1922C14.486 11.8215 14.3287 12.4055 14.014 12.9442C13.6993 13.4829 13.2753 13.9095 12.742 14.2242C12.2087 14.5389 11.6273 14.6962 10.998 14.6962H4.99799C4.35799 14.6962 3.77132 14.5389 3.23799 14.2242C2.70466 13.9095 2.28066 13.4855 1.96599 12.9522C1.65132 12.4189 1.49399 11.8322 1.49399 11.1922V5.19219C1.49399 4.56286 1.65132 3.98153 1.96599 3.44819C2.28066 2.91486 2.70732 2.49086 3.24599 2.17619C3.78466 1.86153 4.36866 1.7042 4.99799 1.7042H10.998C11.6273 1.7042 12.2087 1.86153 12.742 2.17619C13.2753 2.49086 13.6993 2.91486 14.014 3.44819C14.3287 3.98153 14.486 4.56286 14.486 5.19219V11.1922ZM7.98999 4.20019C7.26466 4.20019 6.59532 4.37886 5.98199 4.73619C5.36866 5.09353 4.88332 5.57886 4.52599 6.19219C4.16866 6.80553 3.98999 7.47486 3.98999 8.2002C3.98999 8.92553 4.16866 9.59486 4.52599 10.2082C4.88332 10.8215 5.36866 11.3069 5.98199 11.6642C6.59532 12.0215 7.26466 12.2002 7.98999 12.2002C8.71532 12.2002 9.38466 12.0215 9.99799 11.6642C10.6113 11.3069 11.0967 10.8215 11.454 10.2082C11.8113 9.59486 11.99 8.92553 11.99 8.2002C11.99 7.47486 11.8113 6.80553 11.454 6.19219C11.0967 5.57886 10.6113 5.09353 9.99799 4.73619C9.38466 4.37886 8.71532 4.20019 7.98999 4.20019ZM7.98999 10.6962C7.54199 10.6962 7.12599 10.5842 6.74199 10.3602C6.35799 10.1362 6.05399 9.83219 5.82999 9.44819C5.60599 9.0642 5.49399 8.64819 5.49399 8.2002C5.49399 7.7522 5.60599 7.33619 5.82999 6.9522C6.05399 6.56819 6.35799 6.26419 6.74199 6.04019C7.12599 5.81619 7.54199 5.7042 7.98999 5.7042C8.43799 5.7042 8.85399 5.81619 9.23799 6.04019C9.62199 6.26419 9.92599 6.56819 10.15 6.9522C10.374 7.33619 10.486 7.7522 10.486 8.2002C10.486 8.64819 10.374 9.0642 10.15 9.44819C9.92599 9.83219 9.62199 10.1362 9.23799 10.3602C8.85399 10.5842 8.43799 10.6962 7.98999 10.6962ZM12.294 3.36819C12.4433 3.36819 12.5687 3.41886 12.67 3.5202C12.7713 3.62153 12.822 3.74686 12.822 3.89619C12.822 4.04553 12.7687 4.17353 12.662 4.28019C12.5553 4.38686 12.43 4.4402 12.286 4.4402C12.142 4.4402 12.0167 4.38686 11.91 4.28019C11.8033 4.17353 11.75 4.04553 11.75 3.89619C11.75 3.74686 11.8033 3.62153 11.91 3.5202C12.0167 3.41886 12.1447 3.36819 12.294 3.36819Z" fill="#F7F7F8"/>
</svg>
