<svg width="39" height="39" viewBox="0 0 39 39" fill="none" xmlns="http://www.w3.org/2000/svg">
<g clip-path="url(#clip0_116_717)">
<path d="M31.708 38.2226C23.5984 39.0878 15.4198 39.0878 7.31028 38.2226C5.73548 38.0563 4.26526 37.3552 3.14473 36.2362C2.0242 35.1173 1.32106 33.6481 1.15255 32.0735C0.287365 23.9639 0.287365 15.7853 1.15255 7.67576C1.31885 6.10096 2.01992 4.63074 3.13888 3.51021C4.25784 2.38968 5.72708 1.68654 7.30164 1.51803C15.4112 0.652844 23.5898 0.652844 31.6994 1.51803C33.2742 1.68433 34.7444 2.3854 35.8649 3.50436C36.9855 4.62332 37.6886 6.09255 37.8571 7.66712C38.7223 15.7767 38.7223 23.9553 37.8571 32.0648C37.6908 33.6396 36.9897 35.1099 35.8708 36.2304C34.7518 37.3509 33.2826 38.0541 31.708 38.2226Z" fill="#BA45E3"/>
<path d="M38.5048 21.4186C38.4573 24.9725 38.2414 28.5242 37.8571 32.0737C37.6893 33.6471 36.9875 35.1155 35.8687 36.2344C34.7498 37.3533 33.2814 38.055 31.708 38.2228C28.1426 38.6028 24.5743 38.8187 21.0032 38.8705L9.14116 26.9955C8.26241 10.9276 29.5986 12.5296 29.5986 12.5296L38.5048 21.4186Z" fill="#BA45E3"/>
<path d="M30.8253 14.1573C30.3503 12.6956 28.7785 11.8104 27.3319 11.6074C22.1287 11.0547 16.8816 11.0547 11.6785 11.6074C10.2319 11.8104 8.65574 12.687 8.18506 14.1573C7.4445 17.9307 7.4445 21.812 8.18506 25.5854C8.66006 27.0449 10.2319 27.9323 11.6785 28.1353C16.8816 28.688 22.1287 28.688 27.3319 28.1353C28.7785 27.9323 30.3546 27.0557 30.8253 25.5854C31.5658 21.812 31.5658 17.9307 30.8253 14.1573ZM16.6638 24.4216V15.3189L24.0738 19.8703C21.5757 21.4054 19.1511 22.893 16.6638 24.4216Z" fill="white"/>
</g>
<defs>
<clipPath id="clip0_116_717">
<rect x="0.504883" y="0.870117" width="38" height="38" rx="19" fill="white"/>
</clipPath>
</defs>
</svg>
