<svg width="39" height="39" viewBox="0 0 39 39" fill="#BA45E3" xmlns="http://www.w3.org/2000/svg">
<rect  x="0.504883" y="0.870117" width="38" height="38" rx="19" stroke="#F7F7F8" stroke-opacity="0.15"/>
<g clip-path="url(#clip0_4_343)">
<path d="M22.9902 14.2002C21.9022 14.2002 20.8622 14.4082 19.8702 14.8242C18.9209 15.2295 18.0756 15.8029 17.3342 16.5442C16.5929 17.2855 16.0196 18.1309 15.6142 19.0802C15.1982 20.0722 14.9902 21.1122 14.9902 22.2002C14.9902 23.2882 15.1982 24.3282 15.6142 25.3202C16.0196 26.2695 16.5929 27.1149 17.3342 27.8562C18.0756 28.5975 18.9209 29.1709 19.8702 29.5762C20.8622 29.9922 21.9022 30.2002 22.9902 30.2002C24.0782 30.2002 25.1182 29.9922 26.1102 29.5762C27.0596 29.1709 27.9049 28.5975 28.6462 27.8562C29.3876 27.1149 29.9609 26.2695 30.3662 25.3202C30.7822 24.3282 30.9902 23.2882 30.9902 22.2002C30.9902 21.1122 30.7769 20.0775 30.3502 19.0962C29.9449 18.1362 29.3742 17.2882 28.6382 16.5522C27.9022 15.8162 27.0542 15.2455 26.0942 14.8402C25.1129 14.4135 24.0782 14.2002 22.9902 14.2002ZM28.2862 17.8962C28.7769 18.4935 29.1529 19.1575 29.4142 19.8882C29.6756 20.6189 29.8116 21.3735 29.8222 22.1522C28.2542 21.8429 26.6702 21.7682 25.0702 21.9282L24.9102 21.5762C24.8356 21.3842 24.7129 21.1069 24.5422 20.7442L24.4622 20.5842C25.2089 20.3069 25.9049 19.9415 26.5502 19.4882C27.1956 19.0349 27.7742 18.5042 28.2862 17.8962ZM22.9902 15.3842C23.8222 15.3842 24.6276 15.5309 25.4062 15.8242C26.1849 16.1175 26.8889 16.5415 27.5182 17.0962C27.0489 17.6722 26.5102 18.1682 25.9022 18.5842C25.2942 19.0002 24.6382 19.3255 23.9342 19.5602C23.1769 18.1735 22.3289 16.8402 21.3902 15.5602C21.9129 15.4429 22.4462 15.3842 22.9902 15.3842ZM20.0782 16.0242C20.9956 17.2935 21.8436 18.6109 22.6222 19.9762C20.5529 20.5202 18.4462 20.7975 16.3022 20.8082C16.5262 19.7629 16.9689 18.8189 17.6302 17.9762C18.2916 17.1335 19.1076 16.4829 20.0782 16.0242ZM16.1582 22.2162V22.0082C18.5476 22.0189 20.8889 21.6935 23.1822 21.0322C23.4382 21.5442 23.6249 21.9282 23.7422 22.1842L23.4702 22.2642C22.3182 22.6802 21.2649 23.2749 20.3102 24.0482C19.3556 24.8215 18.5582 25.7309 17.9182 26.7762C17.3529 26.1469 16.9182 25.4402 16.6142 24.6562C16.3102 23.8722 16.1582 23.0589 16.1582 22.2162ZM22.9902 29.0482C22.2329 29.0482 21.4942 28.9255 20.7742 28.6802C20.0542 28.4349 19.3956 28.0775 18.7982 27.6082C19.3849 26.5842 20.1422 25.7042 21.0702 24.9682C21.9982 24.2322 23.0276 23.6882 24.1582 23.3362L24.2062 23.3202C24.8569 25.0055 25.3422 26.7335 25.6622 28.5042C24.8089 28.8669 23.9182 29.0482 22.9902 29.0482ZM26.8142 27.8802C26.5156 26.2162 26.0729 24.5895 25.4862 23.0002C26.9262 22.7869 28.3449 22.8829 29.7422 23.2882C29.5929 24.2269 29.2649 25.0935 28.7582 25.8882C28.2516 26.6829 27.6036 27.3469 26.8142 27.8802Z" fill="#F7F7F8"/>
</g>
<defs>
<clipPath id="clip0_4_343">
<rect width="16" height="42" fill="white" transform="matrix(1 0 0 -1 14.9902 43.2002)"/>
</clipPath>
</defs>
</svg>
