<svg width="36" height="36" viewBox="0 0 36 36" fill="none" xmlns="http://www.w3.org/2000/svg">
<g clip-path="url(#clip0_2005_221)">
<path d="M30.728 5.27211C27.3282 1.87229 22.808 0 18 0C13.1921 0 8.6718 1.87229 5.27211 5.27204C1.87229 8.6718 0 13.1921 0 18C0 22.808 1.87229 27.3282 5.27211 30.728C8.6718 34.1277 13.1921 36 18 36C22.8081 36 27.3282 34.1277 30.728 30.7279C34.1277 27.3282 36.0001 22.8079 36.0001 18C36.0001 13.192 34.1277 8.6718 30.728 5.27211ZM6.7652 6.7652C8.34801 5.18239 10.2062 3.97513 12.2314 3.18713C11.692 3.86059 11.1872 4.63466 10.7246 5.50527C10.1874 6.51636 9.72382 7.62681 9.33773 8.81292C8.00024 8.59094 6.76098 8.31799 5.65384 7.99764C6.00083 7.57113 6.37103 7.15937 6.7652 6.7652ZM4.37549 9.81459C5.67043 10.2292 7.15136 10.5789 8.76728 10.8559C8.31728 12.766 8.05241 14.8214 7.9892 16.9443H2.14707C2.313 14.3967 3.07815 11.9652 4.37549 9.81459ZM4.26052 25.9902C3.03322 23.8879 2.30801 21.5267 2.147 19.0558H7.99321C8.06226 21.118 8.32185 23.115 8.75667 24.9751C7.10755 25.2424 5.58943 25.5833 4.26052 25.9902ZM6.7652 29.2349C6.31661 28.7862 5.89881 28.3151 5.51146 27.8248C6.65917 27.5065 7.94223 27.237 9.32339 27.0209C9.71221 28.2234 10.1808 29.3486 10.7246 30.3721C11.2287 31.3208 11.783 32.1545 12.3776 32.8686C10.2957 32.0823 8.38605 30.8556 6.7652 29.2349ZM16.9442 33.6175C15.3405 33.1683 13.8235 31.7038 12.5893 29.3813C12.1577 28.569 11.7786 27.6829 11.4538 26.7384C13.1926 26.547 15.0429 26.4339 16.9442 26.4073V33.6175ZM16.9442 24.2956C14.8357 24.3244 12.7805 24.4568 10.8559 24.6828C10.4313 22.9278 10.1759 21.0281 10.1058 19.0559H16.9443V24.2956H16.9442ZM16.9442 16.9442H10.1017C10.1658 14.9168 10.4253 12.9642 10.8631 11.1645C12.7755 11.4035 14.8263 11.5489 16.9442 11.5905V16.9442ZM16.9442 9.47871C15.0355 9.44025 13.1893 9.31579 11.4628 9.11273C11.7856 8.17813 12.1618 7.30091 12.5893 6.49604C13.8234 4.17348 15.3405 2.70901 16.9442 2.25978V9.47871ZM31.6911 9.92674C32.9479 12.0497 33.6899 14.4407 33.8531 16.9442H28.011C27.9485 14.8458 27.6887 12.8134 27.2481 10.9222C28.8747 10.6595 30.3739 10.3253 31.6911 9.92674ZM29.2348 6.7652C29.6587 7.18912 30.0547 7.63349 30.4241 8.09481C29.2939 8.40342 28.0354 8.66533 26.6832 8.87613C26.2931 7.66619 25.8223 6.53436 25.2755 5.50527C24.8129 4.63466 24.3081 3.86059 23.7687 3.18713C25.7938 3.97513 27.6521 5.18239 29.2348 6.7652ZM19.0559 19.0559H25.8944C25.8238 21.0434 25.5649 22.9575 25.1343 24.7239C23.2222 24.4862 21.1723 24.3421 19.0559 24.3016V19.0559ZM19.0559 16.9442V11.5976C21.1656 11.5699 23.2224 11.4386 25.1489 11.2134C25.5795 12.9995 25.8348 14.9352 25.8983 16.9442H19.0559ZM19.0557 2.25978H19.0558C20.6595 2.70901 22.1765 4.17348 23.4107 6.49604C23.8451 7.31357 24.2264 8.20591 24.5525 9.15724C22.8114 9.34792 20.959 9.46021 19.0557 9.48588V2.25978ZM19.0559 33.6175V26.4134C20.9627 26.4508 22.8075 26.5742 24.5334 26.776C24.2115 27.7063 23.8365 28.5798 23.4107 29.3813C22.1766 31.7038 20.6595 33.1683 19.0559 33.6175ZM29.2348 29.2349C27.614 30.8556 25.7044 32.0823 23.6224 32.8685C24.217 32.1544 24.7713 31.3208 25.2754 30.3721C25.8112 29.3638 26.2737 28.2565 26.6592 27.074C28.0278 27.2999 29.294 27.5793 30.422 27.9079C30.0533 28.3681 29.6579 28.8117 29.2348 29.2349ZM31.6833 26.0866C30.373 25.6654 28.8708 25.3109 27.2307 25.0312C27.6734 23.1553 27.9372 21.1387 28.007 19.0559H33.8532C33.6895 21.5645 32.9449 23.9604 31.6833 26.0866Z" fill="white"/>
</g>
<defs>
<clipPath id="clip0_2005_221">
<rect width="36" height="36" fill="white"/>
</clipPath>
</defs>
</svg>
