<svg width="30" height="40" viewBox="0 0 30 40" fill="none" xmlns="http://www.w3.org/2000/svg">
<g clip-path="url(#clip0_2005_190)">
<path d="M13.0465 39C9 33.9844 0 21.8281 0 15C0 6.71563 6.66357 0 14.8837 0C23.1008 0 29.7674 6.71563 29.7674 15C29.7674 21.8281 20.6977 33.9844 16.7209 39C15.7674 40.1953 14 40.1953 13.0465 39ZM14.8837 20C17.6202 20 19.845 17.7578 19.845 15C19.845 12.2422 17.6202 10 14.8837 10C12.1473 10 9.92248 12.2422 9.92248 15C9.92248 17.7578 12.1473 20 14.8837 20Z" fill="white"/>
</g>
<defs>
<clipPath id="clip0_2005_190">
<rect width="29.7674" height="40" fill="white"/>
</clipPath>
</defs>
</svg>
