<svg width="40" height="40" viewBox="0 0 40 40" fill="none" xmlns="http://www.w3.org/2000/svg">
<path d="M7.73949 8H34.2395C36.7395 8 37.9995 9.18 37.9995 11.58V28.42C37.9995 30.8 36.7395 32 34.2395 32H7.73949C5.23949 32 3.97949 30.8 3.97949 28.42V11.58C3.97949 9.18 5.23949 8 7.73949 8ZM20.9795 25.2L34.4595 14.14C34.9395 13.74 35.3195 12.82 34.7195 12C34.1395 11.18 33.0795 11.16 32.3795 11.66L20.9795 19.38L9.59949 11.66C8.89949 11.16 7.83949 11.18 7.25949 12C6.65949 12.82 7.03949 13.74 7.51949 14.14L20.9795 25.2Z" fill="white"/>
</svg>
