<svg width="39" height="39" viewBox="0 0 39 39" fill="#BA45E3" xmlns="http://www.w3.org/2000/svg">
<rect  x="0.504883" y="0.870117"  width="38" height="38" rx="19" stroke="#F7F7F8" stroke-opacity="0.15"/>
<g clip-path="url(#clip0_4_339)">
<path d="M30.8966 21.8247C31.3661 21.8247 31.8004 21.705 32.1994 21.4656C32.5985 21.2262 32.906 20.8999 33.1219 20.4868C32.7463 20.6651 32.352 20.7802 31.9389 20.8318C31.5257 20.8835 31.1173 20.8623 30.7136 20.7684C30.6854 20.6088 30.6478 20.4492 30.6009 20.2896C30.4507 19.6323 30.1619 19.0431 29.7347 18.522C29.3075 18.0009 28.7911 17.5972 28.1855 17.3108C27.5799 17.0244 26.939 16.8859 26.263 16.8953L26.7419 16.7263C26.77 16.7169 26.8498 16.6935 26.9813 16.6559C27.3193 16.5714 27.5634 16.4963 27.7137 16.4306C27.9766 16.2991 28.0775 16.1606 28.0165 16.0151C27.9554 15.8695 27.723 15.8484 27.3193 15.9517C27.094 16.008 26.7606 16.116 26.3193 16.2756L26.0236 16.3883C26.3053 16.285 26.5259 16.1817 26.6855 16.0785C26.939 15.9188 27.0799 15.7451 27.108 15.5573C26.4977 15.6512 25.9625 15.9047 25.5025 16.3179C25.6715 16.1489 25.7748 15.947 25.8123 15.7123C25.1081 16.1536 24.4696 16.8531 23.8969 17.8108C23.4931 18.5056 23.0659 19.4492 22.6152 20.6417C22.1552 20.1628 21.6387 19.7497 21.066 19.4023C19.3665 18.5103 17.6154 17.7404 15.8127 17.0925C15.8127 17.6559 15.9723 18.1746 16.2915 18.6488C16.6108 19.1229 17.0333 19.4633 17.5591 19.6699C17.1366 19.6511 16.7187 19.698 16.3056 19.8107C16.4089 20.3084 16.6201 20.7168 16.9394 21.036C17.315 21.4116 17.8689 21.6839 18.6013 21.8529C18.3384 21.8435 18.0849 21.8858 17.8408 21.9797C17.5966 22.0736 17.3807 22.2144 17.1929 22.4022C17.437 22.8623 17.7915 23.205 18.2562 23.4303C18.721 23.6557 19.2069 23.7214 19.7139 23.6275C19.3477 23.7871 19.1036 23.9796 18.9816 24.2049C18.8689 24.4115 18.8642 24.6157 18.9675 24.8176C19.0708 25.0195 19.2492 25.1744 19.5027 25.2824C19.7562 25.3903 20.0379 25.4209 20.3477 25.3739C19.6717 26.0687 18.8736 26.5476 17.9534 26.8105C17.0521 27.0734 16.146 27.1015 15.2352 26.895C14.3057 26.679 13.4841 26.2424 12.7705 25.5852C13.7658 26.9372 14.9958 27.9607 16.4605 28.6555C17.8126 29.294 19.2773 29.6226 20.8547 29.6414C22.357 29.6508 23.8077 29.3785 25.2067 28.8245C26.6057 28.2705 27.7888 27.5006 28.7559 26.5147C29.7793 25.4725 30.4507 24.2941 30.7699 22.9796C31.23 23.0172 31.6736 22.9538 32.1008 22.7895C32.528 22.6252 32.9013 22.3787 33.2205 22.0501C32.4318 22.1628 31.6572 22.0876 30.8966 21.8247Z" fill="#F7F7F8"/>
</g>
<defs>
<clipPath id="clip0_4_339">
<rect width="20.45" height="42" fill="white" transform="matrix(1 0 0 -1 12.7705 43.5996)"/>
</clipPath>
</defs>
</svg>
